<?xml version="1.0" encoding="UTF-8"?>
<svg id="Layer_2" data-name="Layer 2" xmlns="http://www.w3.org/2000/svg" viewBox="0 0 75.8 77.4">
  <defs>
    <style>
      .cls-1 {
        fill: #b70000;
      }

      .cls-2 {
        opacity: .9;
      }

      .cls-3 {
        opacity: .5;
      }

      .cls-4 {
        fill: #630923;
      }

      .cls-5 {
        fill: #cca2a2;
        fill-rule: evenodd;
      }
    </style>
  </defs>
  <g id="Design_3_-_Black_Tea" data-name="Design 3 - Black Tea">
    <g id="Proof_Content" data-name="Proof Content">
      <g id="Design">
        <g>
          <g class="cls-3">
            <path class="cls-5" d="M17.7,29.7c.3.1.1.2.5.3v.2c-.3,0-.3-.3-.5-.2-.2,0,0-.2,0-.3ZM17.1,28.6c.1,0,0,.2.2.2,0,.2-.3,0-.3,0-.2,0,0,.4-.4.1,0-.3.3-.3.6-.4ZM18,29.8c0,0,0-.2.1-.3.4.2.5.6-.1.3ZM17.6,25.8c.1.2.2.3,0,.3,0,.1.4.3.5.4l-.3.5c-.2.1-.1-.2,0-.2-.3-.2-.4,0-.8-.2,0,.1.4.3.5.4,0,.4-.7.1-1.1,0,0,.3,0,.4-.4.4-.2-.4.6-.5.9-.7-.2,0-.2,0-.5-.1.1-.2.3-.4.8-.1.5-.1-.1-.7.1-1,0,0,.4.2.3,0-.4-.2-.4,0-.9-.4.4,0,0-.3.1-.5,0-.1.4,0,.3-.2.1,0,0,.1,0,.2.2.4,1.1.9,1,1.3,0-.2-.6-.6-.8-.8-.2,0-.2,0-.2,0,.3.2.3.3.8.7,0,.1-.3,0-.5-.1ZM18.4,28.7c.5.2.4.4.1.4-.3-.2-.2-.3-.1-.4ZM19,27.6h0c0,.3-.3.1-.4.2-.3.4,0-.1-.2-.3.2,0,.3-.1.7.1ZM18.9,28.5c0,.1-.2,0-.2.1-.2-.2,0-.3-.6-.6.1,0,.8.3.8.4ZM17.1,28.5c-.1.1-.4-.2-.2-.2-.4-.1-.2.4-.5.3-.2-.3.2-.2,0-.5.3.1.4,0,.8.2,0,.2-.5,0-.1.2ZM16.9,29.7c-.6-.2-.4-.7.2-.4-.2,0-.2.2-.2.4ZM32.5,63.2c-.2.5.2.3.3.4-.1.3-.4.4-.4,0-.1,0-.1.5-.3.6-.1-.3-.4,0-.6-.3,0,0,.1-.4,0-.5,0-.1-.5,0-.2-.4.3,0,.3.3.3.6.2,0,.4,0,.5-.2,0-.7-.2,0-.4,0,0-.8-1.3-.4-1.6-1,.5,0,1.1.2,1.7.4.6.1,1.1.3,1.6.4-.2.4-.8-.3-1,.1ZM35,61.6c.1-.7.4-.2.6-.4.1-.1,0-.1.3,0,0,1.1-.8.4-.8.4ZM34.5,61.1c0,.1-.2.4,0,.5.1.1.2-.3.1-.3.2-.4.3.2.5,0v.3c-.6.1-1.1.5-1.5.4-.2,0-.2-.5-.5-.3,0-.2,0-.2,0-.5,0-.4-.3-.4-.4-.6,0-.6.5.3.4-.2.2-.5.1.5.2.7.2-.2.1.3.1.3,0,0,.2,0,.3,0,0,0,0,.5,0,.3,0,0,0-.2,0-.3,0-.4-.1,0-.3-.4,0,0,.1-.3.1-.3,0-.2-.4.2-.3-.4.5.1.8.4,1.1.5ZM34.3,61.5c-.1,0,0-.5-.3-.4-.1.4.2.7.3.4ZM16.3,28.6c-.1.2-.7,0-.7.3-.4-.4-.3-.5.2-.5-.3-.3-.4-.7.1-.6.4,0-.2,0-.2.3,0,.1.3.3.5.4ZM36.4,60.8c.3,0,.6.8.2.8.2-.5-.2-.3-.2-.8ZM35.8,61.9h.3c0,.5-.5.5-.3,0ZM17.7,30.2v-.2c0,0,.6.2.6.2v.2c-.3-.2-.2,0-.6-.2ZM32.5,60.2c.1-.4.3-.3.5-.7.4.1,1,0,1.3.4-.4.3-.8-.2-1.2,0-.2,0-.3.4-.5.4ZM20.1,46.3c.8-.2.6.2.8.5-.5.2-.2-.2-.3-.3-.1-.1-.4,0-.4-.2ZM18.7,25.7c-.1.2.6.3.4.5.2,0,.2,0,.5.2,0,.2-.2.1-.3.2-.1,0,0,.4-.4,0,0-.1.1-.2.3-.2,0,0-.4-.3-.4-.2-.2-.2.1-.2-.4-.5.5,0,0-.5.3-.5,0,0,.2.2.3.3-.1,0,0,.4-.3.2ZM31.5,59.3c.2-.4.3-.2.4.1,0,0,0-.2.1-.3,0,.3.3,0,.4,0,0,0,.3-.1.2.4-.2-.3-.5.3-.6.3-.2,0-.2-.5-.5-.5ZM60.6,51.2c.6.2.5,1.1-.2.6,0-.1.4.1.4,0,0-.2-.4-.1-.5-.1-.2.2.6.6.4.9-.4-.3-.7-.9-.6-1.1.1-.1.4,0,.5-.2ZM56.4,55.7c0,.2,0,.6-.5.1.1,0,.4.2.5,0-.3-.4-.4,0-.7-.4.2,0,.9,0,.4-.4-.2-.4.3-.2.6,0,0,.1-.2,0-.2.2,0,0,.2.2.2.3,0,.1-.2.1-.2.2ZM58.7,56.3c0,.4-.5.6-.7,1-.1-.3-.2-.5-.7-.9,0-.3.4.2.7.4.3,0-.2-.3-.2-.4,0,0,0-.2.1-.1-.1-.2-.3-.3-.5-.4-.1,0,0,.2,0,.2-.1,0-.7-.3-.7,0-.2-.3,0-.5.3-.3.3-.3,0-.6.4-.6.3.3,0,.4,0,.5l.3.3c.2-.2-.2-.6.3-.5,0,0-.2-.2-.3-.4,0-.2.3,0,.4,0,.2-.2-.3-.4,0-.6.4.3.3.5.2.8,0,.4.3.5.6.9,0,.4-.5-.4-.6,0,0,0,.2.3.2.2ZM58.7,51.1c-.2-.2.2,0,.3-.2,0-.1,0-.3,0-.3.2-.1.6,0,.7-.2.6.6-.6.2-.3.7-.3,0-.5-.1-.7,0ZM58.5,52.2c-.3-.1-.2-.6,0-.4,0-.3-.3-.5,0-.7,0,.4.5.5.7.3.5.7-.6.4-.4.9-.1-.1-.2-.1-.3-.1ZM54.6,57.4h.2c.2.2.5.5.3.6-.3-.3-.2-.4-.4-.6ZM55.9,58.9c.2,0,.4.2.5,0,0-.1-.2-.3,0-.4.1.2.3.3.4.3,0,.3-.3.7-.9.1ZM56.8,58.6c-.4-.5.3-.2.4-.6-.6-.4.5-.3.3-.8.5.4,0,.6-.1.8-.2.3-.3.7-.7.6ZM56.1,58.1c-.1-.1,0-.2,0-.2-.2-.2-.3-.3-.4-.2-.2-.1.2-.4-.2-.4-.4-.4.3,0,.3,0,.1,0,.1-.2.2-.2,0,0,.2.2.3.2.2,0,.1-.3.4,0,.1,0,.2-.4.4,0-.3,0-.4.2-.7.3-.2,0-.9-.5-.6,0,.3.1.5-.2.9.3-.2.3-.7-.1-.6.3ZM59.4,50.5c-.1,0-.3,0-.3-.2,0-.2.2-.3.4-.6.2-.2.3-.5.4-.7,0-.3.4-.1.1,0-.1.5-.2,1.1-.6,1.4ZM55.1,56.3c0-.3-.5-.7-.3-.8,0,.3.7.5.4.6.3.2.3-.2.7.2-.5-.1-.5.4-1,.4-.1-.4-.2,0-.5-.4.1-.3.5.1.7-.1ZM54.1,55.1c-.4-.1.4-.3.1-.5.3,0,0-.3.4-.2,0,.3,0,.9-.2.9,0-.4-.2-.3-.4,0ZM59.4,53c.2,0-.1-.3-.1-.4,0-.2.4.2.6,0,.3.4.7.4.6.8-.4-.2-.3-.4-.7-.6-.2.1.2.7.5.6.1.1,0,.1,0,0h0c-.4-.1-.1-.2-.5-.4,0,.3.1.6-.3.6-.4-.3-.4-.5-.4-.7.1-.2.4,0,.6,0ZM62,44.5c-.3,0,0-.6,0-.8.6.3-.1.5,0,.8ZM63.9,48.3c.3,0,.5-.2.5-.5.4.2.2.7,0,.6.3.2,0,.4.3.6.5,0,.2-.8.2-.9,0,0,.3,0,.3.1,0-.2-.3-.4-.5-.5,0-.1.2-.2.4-.1,0-.2,0-.5,0-.6,0-.4.7.2.6-.2,0-.1-.3,0-.3,0-.3-.2.1-.5,0-.7.2.2.1.4.3.5.1,0,.2,0,.3,0,0-.2-.2-.4-.3-.5.5.2.6-.5.7-.7.1.2.3.4.3.6.2,0,.2-.2.2-.3.4.4.3,1.4,0,1.9,0,.1-.1.1-.4,0,0,.1.2.1.2.3,0,.2-.3,0-.4,0,0,.1.2.2.2.4,0,.2-.5.3-.6.5-.2.4,0,.8-.3,1.1-.2.3-.7.4-.9.7,0,.1,0,.3,0,.3-.3.5-1,.8-.8,1.5-.2,0-.3,0-.4,0-.3-.2.3-.4-.3-.7,0,.3.1.6.3,1-.7,0-.7.9-1.2,1.3-.2.1-.4,0-.6,0-.3,0-.3.4-.7.2-.5-.5.2-.5.3-.6.1-.2.3-.5.4-.6,0,0,0-.2,0-.2,0,0,.4,0,.4,0,0,0,0-.3,0-.4.2-.2.4-.2.2-.6.4.2.3.6.7.4,0-.1-.2,0-.4-.2,0-.2,0-.5-.3-.7.5-.4.6-.9,1.1-1.2,0-.3-.1-.7-.5-1,.2-.1.4-.3.5-.6l.6.2c.1-.2,0-.3-.3-.5ZM63,51.1c.2,0,.3,0,.4,0-.6-.3-.4,0-.5.3.3,0,.7.3.9.3-.2-.3-.6-.2-.7-.6ZM63.5,50.7c-.2.2.3.4.2.6-.1,0-.2,0,0,.1,0-.4.6.2.6-.2-.6-.2-.3-.4-.7-.6ZM64.1,50.4c-.4-.2-.5,0-.8.2.4.3.4,0,.7.3.2-.2-.2-.3,0-.4ZM66.4,47.4c0,0,.2,0,.3,0,0-.2,0-.5-.4-.6-.1.2-.1.4.1.6ZM65,49.6c0,.3-.7.6-.3.6.2,0,.7-.7.3-.6ZM64.1,48.9c-.8-.3-.4.7,0,1,.4-.4-.5-.6,0-1ZM36.8,61.2c.2.1,0-.6.3-.5,0,.5-.3.4-.2,1.1-.1,0-.2-.3-.1-.6ZM64.8,37.6c.7.1,0,.4,0,.7-.3.2,0-.5,0-.7ZM60.9,51.1c0-.4.4,0,.5-.2.4.3-.4.2-.1.5-.3.1,0-.2-.4-.3ZM62.4,51.3c.3.1.1.2.3.4-.3.1-.3.2-.3.5-.6-.5,0-.4,0-.8ZM60.3,48.4v-.3c.2,0,.3.2.5.3h0c0-.2-.2-.3-.3-.3-.4-.3.2-.2.3-.3-.2-.1-.3,0-.6-.2.6,0,.5-.2.6-.5.3.2,0,.4.5.5,0,0-.4,0-.4,0,0,0,.2.2.2.2,0,.1-.3.2-.3.6-.3-.1-.3,0-.6-.1ZM19.7,25.1c.4.3.3.5,0,.4-.3-.2-.2-.3,0-.4ZM61.3,49.4c.1-.3.8-.2.2-.7,0-.3.4,0,.5-.3.3-.2-.3-.6.1-.6.2.2.3.5.2.7-.1.4-.3,1.1-1,.8ZM61.3,49.6c1.1.6-.2.6,0,1.2-.6-.4-.1-.1-.5,0-.5-.6.7-.5.4-1.1ZM62.9,49.7c0-.1,0-.2,0-.3.6.1-.1.3.3.5-.3.3-.7.5-.8.9-.4,0,.4-.9.6-1.1ZM53.3,37.8c.6.1,1.6.2,2,.4,0,0,0,.2.1.3.1,0,.6.3.3.5,0,.1.3.2.4.3-.2.7,0,1.3-.3,1.7-.1,0-.2-.1-.3-.2-.5,0-.2,0-.2.2-.5,0-.9.1-.7.3.5,0,1-.1,1-.3.3.3-.2.4,0,.6-.5-.2-.6,0-.6-.2-.2,0-.4.2-.2.3.5.1.5,0,1.1,0v.3c-.2-.4-1.1-.2-.7,0,.2,0,0,0,.2-.1.3,0,0,.3.2.5-.2,0-.2,0-.5,0,.3.3-.4.3-.6.4-.2-.3-.1-.6-1-.9,0,0,.3,0,.3,0,0-.2-.3,0-.6-.2.2-.1-.1-.3,0-.4.5,0,.2.2.2.3.7.2.4-.2.1-.4,0-.2.5,0,.4-.2-.1,0-.3-.2-.4-.2-.3,0,0,.1,0,.1,0,0-.3,0-.3,0,0,0,.2.3-.1.3,0-.2,0-.4,0-.6v-.6c.5.2,1,.2,1.4.3.1-.1-.2-.2,0-.3-.1-.1-.3,0-.8,0v-.2c-.7,0-.6,0-.5.2-.6-.2-.3-.5-.5-.7.1,0,.2,0,.5,0,0-.1-.2-.2-.3-.3-.1,0-.3,0-.3,0-.5-.2-.4-.5-.5-.8.2,0,.4,0,.5,0,.1,0-.5-.2-.6-.1-.3,0,0-.2-.1-.3.5,0,1.3,0,1.7-.2ZM54.4,41.4c-.5-.1-.8.2-.3.3.3,0,0-.2.3-.3ZM54.5,40.5c-.4,0-.4.1-1.2,0-.2.2.9.2.9.3-.4,0-.5.3.2.5.2-.1-.2-.2-.3-.3.2-.2,1-.2.4-.5ZM53.8,39.4c-.3.2,0,.2,0,.3,0,0-.2.3.3.3.3,0,0-.2.4-.2-.7-.2-.3-.3-.7-.4ZM54.7,39.5c.4,0,.4,0,.5-.1-.5-.1-.5,0-.5.1ZM53.5,39.1c0,.1.2.2.4.2,0,0,.2,0,.2-.2h-.6ZM53,38.9c.1,0,1.1.2.9,0,0,0-1.1-.2-.9,0ZM52.5,38.2s-.2,0-.2,0c.5,0,.7,0,.8-.1-.5,0-.2.1-.6.1ZM41.8,60.9c-.2-.2-.5.1-.6-.4.3-.1.4.2.7,0,0,.2-.1.1,0,.3ZM41.5,60.3c-.3-.3.2-.7.3-.4,0,.3-.4-.2-.3.4ZM43.5,59.6c0,.3-.3,1.2-.7.5,0,.1-.2.3-.3.4,0-.1,0-.1,0-.2,0-.1,0-.1,0-.1,0-.7,1,.5.7-.6.1-.2.2.2.4,0ZM41,60.7c-.3,0-.3.5-.6.4,0-.7.4-.4.4-.8.1.1.5.6.3.9,0,.5.2-.5.3,0,0,.6-.2.5-.4.4-.1-.5,0-.5,0-.8ZM43,61.3c-.5,0-.6.1-1.1,0,0-.7.1-1,.5-1.1.2.6-.3.1-.2.5.3.5.5-.3.8.5ZM55.5,54c-.2-.2-.2-.4-.3-.3-.3-.4.3-.1.5.1l-.2.2ZM40,61.4c.2-.1.4.2.7,0,0,.4-.3.1-.2.6-.2-.1-.4,0-.5-.6ZM37.4,59.8c0-.3.6-.5.8,0,0,.6-.1,0-.2,0-.2,0-.5.2-.6,0ZM43.7,61c.4-.1-.2-1,.2-1,0,.4,0,.6.1,1.1-.3,0-.5.5-.7-.2.2,0,.4-.6.4,0ZM38.5,59.5c.1-.4.5,0,.8-.2-.2.3-.5.4-.8.2ZM39.3,60.9c.2.3.2,0,.4.1,0,.3-.2.2-.2.5-.1-.1-.2-.3-.2-.6ZM37.6,61.3c0-.4,0-.5-.3-.5.1-.7.5,0,.8-.3,0,.2,0,.6.2.6.2-.1,0-.3,0-.6,0,.1.2.2.3.2,0,.3-.2.5,0,.6,0,.2-.3.5-.4.2-.1,0,0,.4-.3.3,0-.3,0-.3.2-.3,0-.2,0-.3,0-.5-.2.3-.3.9-.7.9.2-.7,0-.3-.3-.2,0-.3,0-.3,0-.6.2-.1.2.3.4.1ZM39.8,58.9c.2.3.4,0,.6,0,.1,0,.2.1.3.1.1,0,0-.2.2-.2.5,0,1.1-.1,1.7-.3.2.8-.3.4-.5.4-.2,0-.2.5-.4.2,0,0,0,.3,0,.3,0,.4-.3,0-.3-.4-.5.2-.9,0-1.2.4-.1-.2-.3-.2-.4-.6ZM55.7,53.3c-.4-.1-.1-.6.1-.6.3.3-.4.3-.1.6ZM59.3,55.1c-.1,0-.5,0-.5.2-.5-.4.5-.3.4-.3,0,0,.1-.4.3-.6.1-.2.4-.2.4-.5.2.1.4.1.4,0,.2.5-.5.4-.7.6-.2.2,0,.5-.3.6ZM56.6,53.8c.4.3,0,.3.5.6,0,0-.2,0-.4,0,0-.2-.4-.5-.1-.6ZM56.7,54.3c-.2.1.8.6.4.7-.4-.2-.3-.6-.6-.5-.3-.3-.1-.4.2-.2ZM58.8,55.7c.1-.2.6,0,.4-.3.3-.1.2,1-.4.3ZM45.4,56.4c.2-.1.3,0,.4-.2.4.8-.4,0,0,.8-.1.2-.3-.4-.4-.7ZM50.7,52.9c0-.6.6-.4.8-.7.2-.2-.1-.7.2-.6.3.3,0,.3,0,.5,0,.1,0,.3,0,.4,0,0-.2,0-.2,0,0,0,0,.4-.3,0,0,.4,0,.4-.4.4ZM58.8,54.2c.1.2,0,.3,0,.5-.5-.3-.3-.6,0-.5ZM57.5,52.4c.3,0,.4,0,.6,0,.8.8-.1,1-.4,1.4,0,0,.2.2.3.3-.6-.2-.2.3-.3.6-.1.2-.5-.1-.6,0-.1-.4.5-.3.4-.7-.1-.3-.5-.6-.4-.8.2.1.2.2.3.3,0-.5,1-.4,0-1.2ZM54.1,51.2c-.5-.5-.3-.6,0-.7-.2-.2-.2-.8.4-.3-.2.3-.2.9-.4,1ZM46.1,16.8c-.4.1-.8-.2-1.2-.2.4-.2.9-.1,1.2.2ZM31,70.5c.2-.5.4-.2.6,0-.1.5-.4.2-.6,0ZM31.8,69.9l-.8-.2c0-.4.9-.4.8.2ZM31.4,71.4c-.2.5-.3.2-.5,0,0-.4.4-.3.5,0ZM26.4,68.2c-.2.3-.4-.1-.6,0,.3-.5.4,0,.6,0ZM31.4,72.8c.7,0,1,.3,1.6.3-.2.6.4.1.2.7-.3-.2-.6-.1-.9-.3,0,0,0-.3,0-.3,0-.1-.4,0-.5,0-.2.1,0,.2-.2.6-.2-.5-.5,0-.8-.5-.1,0,0,.1,0,.2-.2.4-.2-.2-.4-.2,0-.3.7-.3.4-.6.3-.3.5.3.2.7.1-.1.4,0,.4-.4ZM33.7,69.9c-.1.5-.7,0-1,.1.3-.6.6.2,1-.1ZM24.2,69.6c.2-.4,0-.5,0-.7-.1,0-.2.2-.4.4-.2-.1-.2-.4-.5-.4.4-.3.2-.4.6-.6.2.4,0,.2-.3.6.3,0,.6-.5,1,0-.4.8,0,.5.4.6-.2.6-.6.6-1,.4,0-.3.2-.2.3-.2ZM33.2,72.2c.1-.3.5.3.9.1,0,.5-.6,0-.9-.1ZM31.9,74.1c0,.3-.4,0-.5,0,.1-.6.4-.3.5,0ZM22.4,69.1c-.2,0-.5.4-.7.1.2-.4.5-.2.7-.1ZM20.1,67.7c0,.1,0,.2.2.3-.2,0-.5.3-.7,0,.2-.3.4-.1.6-.4ZM34.1,69.9c1.2.2,1.6.1,2.8.4.3.2-.3.1-.6.1-.7,0-1.7-.2-2.5-.2,0-.3.1-.3.2-.3ZM16.6,65.8c-.4-.2,0-.5.2-.8.3.1-.1.5-.2.8ZM12,64.3c-.2-.2-.3-.3,0-.6.2.2.3.3,0,.6ZM15.1,66.8c-.6-.2-1.2-.7-1.5-1.4-.2-.3-.5.2-.6-.2,0,0,.2,0,.3-.2-.3-.5-.7-.4-1-.5.6-.5.3-.7.3-1,.7-.4.7.6.6,1,.4-.4,1.2-.5,1.2-.1-.2.4-.4-.1-.6,0-.2.4.3.2.4.2,0,.2.5.2.4.4,0,0-.2.2-.2.2,0,0,.3,0,.5,0,.2,0,0,.2,0,.2,0,.1.4-.1.4.3,0,0,0,.2,0,.2,0,.2-.7.5-.2.8ZM15,66.2c-.4-.2-.1-1.1-.8-.3.3.2.5.6.8.3ZM23.7,67.2c.3-.5.5,0,.6.1-.2.3-.4-.1-.6-.1ZM23.3,67.8c.3-.2.7.3,1.1.4-.3.3-.7-.3-1.1-.4ZM13.9,59.8c-.5.2-.3-.2-.6-.4,0-.4.4.3.6.4ZM16,61.9c-.4,0-.7-.4-1-.8-.1-.1-.5-.5-.7-.7-.2-.2-.3-.4,0-.1.5.4,1.2,1.2,1.7,1.6ZM11.1,36c.7-.1,0,.6.2.8-.3-.2-.6-.5-.1-.6,0-.1,0-.2-.1-.2ZM11.7,35c-.1.2-.3.5-.2.8-.3-.2-.4-.9.2-.8ZM13,34.7c0-.2.5,0,.6,0,0,.2-.3.2-.4.3-.4-.1.4-.3-.2-.4ZM37.6,70.5c.3-.3,1.1-.2,1.4,0-.4.4-1.1,0-1.4,0ZM12.7,63.1c-1,.9-1.6.3-1.6-.5-.1,0-.2.2-.2.3-.5.1-.3-.6-.4-.9,0,0-.2,0-.1.1-.3,0-.7-.6-.6-.9-.3,0-.4-.4-.8,0,0-.6-.4-.8-.7-1.2,0-.3.5-.7.3-1-.4,0,0,.6-.6.7-.2-.1-.2-.3,0-.4-.5-.5-.8-1.4-1.3-1.7-.1-.2,0-.3.2-.5-.5.2-.8-.3-.9-.9-.4.1-.5-.3-.8-.5.3-.2.3,0,.4.1.3-.4-.5-.4-.3-.9,0,0-.2,0-.1,0-.6.2,0-.2,0-.3,0,0-.2-.4-.2-.5,0-.2-.2-.3-.2-.5,0-.1.2-.4.2-.4,0-.1-.5,0-.6-.2-.1-.1,0-.2,0-.3,0,0-.2,0-.2-.1-.1-.4,0-.7-.2-.9,0,0-.1.2,0,.3-.4-.3-.2-.9-.3-1.3,0-.2-.3-.2-.3-.4,0,0,.1-.3,0-.4,0-.1-.2,0-.3,0-.2-.1,0-.5-.2-.7.3,0,.4,0,.4.3,0-.5.6,0,.8-.4,0,0-.2,0-.2-.1-.2-.2-.3.2-.6.2-.3,0,0-.2-.1-.4,0,0-.4-.2-.4-.2,0,0,.3-.6-.3-.3-.1-.2.2-.2.2-.4,0-.2-.2-.2-.3-.1.2-.5.3-.8-.3-1.2.1-.3.3-.5.3-.9-.3,0-.3.1-.3.3-.3-.1,0-.4-.3-.7,0-.2-.5,0-.6,0,.1-.4-.5-.4-.6-.5,0,0,0-.4,0-.5-.4-.7-.4-2.2-.4-3.3,0-.2-.4-.6.1-.7,0-.2-.3-.1-.3-.3,0-1.2-.2-2.1.3-2.9.4.4-.3.8.1,1.2.6.1.3-.4.3-.6,0-.1.2-.3.2-.3,0-.2-.4-.4-.3-.5.4-.5.5-1.2,0-1.5.3-.9-.1-1.7.6-2.2-.5-.7.2-1.7.4-2.4-.6-.4,0-1,.3-1.7.1-.5,0-1.1.1-1.6.2-.6.4-1.2.6-1.7.2-.5.8-.9.4-1.5.6,0,.2-.4.3-.8,0-.2.2,0,.3-.2.3-.5.3-1.2.6-1.9.1-.3.5-.5.6-.8,0-.2,0-.5,0-.7,0-.2.4-.3.5-.5.2-.3,0-.8.4-.9,0,0-.1-.2-.2-.3.2-.2.4-.3.6-.6.5,0,1,0,1.3-.5.5.1.4.7,1.1,1.1.4.1.3-.4.4-.5,0-.2-.2-.1-.4-.4.1-.4.6.2.8,0,.4-.2-.1-.4.1-.6.2.2.3.1.5.3.3-.2,0-.4.3-.6.2.1.1.2.3.4.1-.3.2-.7.7-.5,0,0-.1-.2-.1-.1,0-.3.5-.8.9-.7,0-.2-.3-.4,0-.3.1-.2,0-.5,0-.8.2,0,.5.3.6.2,0-.1,0-.2,0-.3-.3-.3-.4-.2-.7-.6.2-.2.2,0,.3.1.3,0,0-.4.2-.5.3,0,1.2.6.7-.2-.2-.1-.4,0-.2.2-.2,0-.5-.4-.8-.5.1-.2.2-.5.5-.6.2.3-.4.3,0,.7.5,0,.8-.7.7-1.2.4,0,.6-.7,1.1-.1.4-.1,0-.5.2-.6.2,0,0,.2,0,.2.3.3.9.1,1,.8.2,0,.6-.1.5-.4-.2-.1-.4,0-.6,0,0-.3-.7-.6-.3-.9.4-.2,0,.2.4.5.2-.2,0-.7.5-.3.2-.2-.3-.2-.4-.5.3.1.6-.3.9-.4.3,0,.2.6.6.5.1,0,.1-.2,0-.4-.1-.2-.3.1-.4,0-.4-.4.1-.4.2-.5-.4-.4-.4.1-.6.3-.3-.8.4-.5.8-.9,0,.2,0,.3,0,.5.4-.6.8,0,1.2.2,0,0,0-.2,0-.2-.4-.3-.8-.4-1.2-.9.3,0,.5,0,.8.5.3,0,.2-.4.2-.6.2,0,.3.2.5.4.2-.2,0-.4.4-.4.2,0,.4-.1.5,0,.3-.3-.3-.4-.2-.8h-.3c0-.2.6-.3.7.3.3-.3.6-.1.9-.3-.4-.2-1.1.2-1.1-.5.2-.2.4.3.7.2,0,0,0-.2.1-.2-.1-.3-.3-.2-.4-.5-.2,0-.2.2-.3.3-.4-.3.4-.5.7-.3.1.2,0,.3.2.6.2-.4.8-.6,1.2-.2,0-.3-.3-.4-.5-.6.3-.6,1.3.4,1.7-.4.2-.2.3.4.6.1.3,0,0-.4.2-.6.6.1.7-.2,1.2,0,0-.1,0-.4.2-.4,0-.2,0-.5,0-.7-.2-.1-.2-.3,0-.3.2.4,0,1,.4,1,.2-.1-.2-.2-.2-.6.4,0,.5-.5.8-.6.4,0,.8.4,1.2.2.2,0-.2-.7.2-.5.3-.1,0,.2.2.3,0,.1.3,0,.4.4.3-.3,0-.5,0-1,.3.1.8,0,1.1-.2.3.3,0,.5,0,.8.2.3.6-.1.9-.3,0,.5.2.7-.1,1,0,.2.3,0,.4.1.2,0,0-.7,0-.9.3,0,.1-.6.5-.5.1,0,0-.3,0-.5.7.1,1.2-.2,1.8,0,0,0,0-.2,0-.3.4,0,.7-.1,1,0,0,0,0,.3,0,.3,0,.1.4-.1.5,0,.1,0,0-.3.2-.3,0-.5-.3-.1-.2-.6.4-.4.3.9.8.3,0,.2,0,.3,0,.5.3.2.5-.5.7,0,.1,0,0-.3,0-.5.6.2,1,0,1.5-.1,0,.2-.3,0-.3.3.1.5,1.1-.5.4-.4,0-.3.5,0,.7-.1,0,.3,0,.4,0,.6.1,0,0-.2,0-.2.3-.5.9.6,1.1-.2.3,0,.2.5.6.4,0-.3-.1-.3-.3-.3.1-.3.6,0,.7.2.2,0,0-.6.4-.4.2,0,.2.3.1.5.3.2.7-.3,1.1-.3,0,0,0,.2.2.2.1,0,.2-.1.2-.1.2,0,.7.2,1.1.2.2,0,.5,0,.7.1.3,0,.6-.3.7.2,0,0,.2.3.4.3,0,0,.2-.3.2-.3,0,0,.5.9.8,0,.4,0,.6,0,1.2.2.1,0,.5,0,.4,0,.1,0,0,.3.2.4.3.1.4-.4.5.2.1-.1.3-.2.4-.3.7.2,1.5.5,2.2.7.7.2,1.4.4,2.1.6,0,.1,0,.3,0,.5.6-.1,1.2,0,1.7.1.5.2.9.4,1.4.6.2.2.4-.5.6-.2-.3.4-.2.6-.1.8.3-.4,0-.4.2-.8.2.1.5.3.3.6.2,0,.3-.2.5-.4.7.3.8.6,1.5,1.1-.6.4-.7.5-1.3,1.2.1.2.3,0,.4-.2.2.2-.1.7-.2,1,.6,0,.6.8,1.2.5.2,0,0,.3,0,.4.1,0,.2-.2.4-.1.4.1.2.4.4.6-.2.3-.3.6,0,.7.5-.2-.5-.7.2-.5.2,0,.3.3.3.3.2.1.4,0,.5,0,.2.1,0,.3.2.4.6.5,1.5,1,1.7,1.5,0,0,.3-.1.4-.2.1.6.8,1.1,1.6,1.1.2.1.1.4.2.5.1.1.4,0,.4,0,0,0-.1.3-.1.4,0,0,.4.3.4.3.1.1.4.1.5.4.1-.2,0-.3-.1-.4,0-.4.5.5.7.7-.5,0-.2.5-.7.4-.3.3.4,0,.4.3.4,0,.3-.6.5-.4.3.3-.2.1-.3.4,0,.2.4-.1.5,0,.1,0,.2.6.5.2.4.4.5.9.7,1.4-.4.2-.4.5-.8.5,0,.5.5,1.4.9,1.6,0,0,.2,0,.3,0,.6.6.5,1.8,1.2,2,0,.5,0,1.2.8.9,0,.3.3.4.5.7,0,.2,0,.5,0,.7,0,.1.3.1.4.2.3.3.4.9.6,1.3.2.3.3,1,.6,1.5.2.3.6.5.7.8.1.4,0,.8.4,1.1-.5,0-.5.2-.9.3,0-.4-.6,0-.7-.4-.4.2.3.3.1.6-.5-.1-1.4,0-1.6.5,0,0,.3.2.4.2,0,.2,0,.7.2,1.1.1.3.5.5.3.9.6.1.5,1.2.8,1.8,0,.2.4.3.5.5.3.6,0,1.2,0,1.8-.6,0-.6.3-1.1.3-.2.6-1.2.6-1.5,1.1-.6-.2-.6,0-.8.3-.8-.3-1.1.2-1.7.3,0-.1-.1-.2-.2-.3-.2,0-.1.2-.2.4-.4-.2-.5,0-.8-.3-.3,0-.3,0-.3.2-.1-.1-.4,0-.6-.2,0,0,0-.1,0-.2-.2,0-.7,0-.8,0,0,0,.2,0,.2-.2-.1-.2-.3-.2-.8-.3.1-.3-.2-.3-.2-.5,0,0-.3,0-.5,0,.6-.4.5-1.2,1.2-1.5v-.6c-1,0-1.3.4-2,.5-.2-.5-.9.2-1.4,0v-.3c-.4,0-.5.2-.9.2,0-.4,0-.4,0-.8.3,0,.5-.2.6-.4,0-.2-.4,0-.5,0v-.3s.6-.1.6-.1c-.2-.2.4-.6-.2-.5-.2,0,.4.4-.4.4l-.5-2.1c0,0-.3,0-.3-.1-.3.1-.4.2-.9.3-.2-.3-.6-.1-.5-.5-.5,0-.2.2-.2.3,0,.2-.2,0-.2-.1,0-.5-.8-1,0-1.5-.3,0-.7,0-.6-.3.2,0,.1.2.3,0,.1,0,.1-.1.3-.2-.1-.1-.3-.2-.7,0-.3-.4,0-.9-.5-1.1.6.1.2-.4-.1-.3-.1-.4-.3-.9-.6-1.1-.3-.4-.5-.9-.7-1.4-.3-.5-.5-.8-1-.9,0-.2.2-.2.4-.3,0,0,0-.1,0-.2-.1-.1-.3,0-.4,0,0,0,0-.4,0-.5,0-.1-.4,0-.4,0-.1,0,0-.2.2-.5-.2,0-.6.3-.7,0,.1,0,.2,0,.3-.1.2-.2-.2-.2-.2-.5,0,0,.1-.3.1-.3-.2-.5-.9-.6-1-.9-.1,0-.3.1-.4.2.2-.6-.4-.6-.8-.8l.3-.3c-.2,0-.3-.2-.6,0,0-.3.3-.3.5-.4-.2-.2-.4,0-.6,0-.1-.3-.5-.5-.9-.3,0-.1,0-.3,0-.4-1.1,0-2.2-.4-2.9-1.3-.2,0-.4,0-.6.2-.2-.2-.3-.5-.6-.6l.3-.6c-.3.1-1,.5-.9-.1.2-.3.3.2.4.2.2,0,.4-.5.6-.4,0-.2,0-.3-.1-.4.3-.1.5-.8.7-1,.5-.5.7,0,1.2,0,0,.1.3.2,0,.5.1,0,.3,0,.4-.1.1-.2,0-.4,0-.4.3-.2.7.3.8.5-.3.4-.2.3-.3.7.2,0,.5-.4.4.1,0-.2.2-.2.2-.2.2-.4-.6-.1-.2-.7.3.2.6.3.7.6.3,0,.3-.5.6-.6-.2-.2-.6,0-.5-.3.2-.2.3-.4.5-.4,0-.2,0-.4,0-.5-.4,0-.1.4-.3.7-.1-.2-.2.1-.4.3-.3,0-.2-.3-.3-.4.1-.2.2,0,.3,0,.3-.7-.4-.2-.6,0-.2-.1-.1-.5-.1-.8-.2,0-.4.7-.6.4,0-.2,0-.5.2-.8-.2,0-.3.4-.5.4-.3-.1-.7-.3-1.1-.6-.4-.2-.8-.5-1.3-.6-.1-.1-.2.4-.4.3,0,.2,0,.3.2.4-.4.4-.3.9-.4,1.3h-.1c0,0-.1-.1-.1-.1.3-.4.4-.8.1-.9-.2.4.2.3-.1.8-.1-.5-.4-.4-.7-.1,0,.3.3,0,.4.2.2.2.2.6.4.8-.2.1-.5.7-.4.9-.3.1-.6.3-.8.5-.2,0,0-.3-.1-.4-.1-.2-.4,0-.5,0-.1,0,0-.2-.1-.2-.2,0-.4,0-.6,0-.3-.2-1.2-.3-1.6-.5-.1,0-.2-.5-.4,0-.2,0,0-.3-.2-.4,0,0-.1,0-.2.3-.2,0,0-.5-.2-.5-.2-.2-.4.3-.5-.1,0,0,0,.3-.1.4-.1-.3-.4-.5-.8-.5,0,.1-.1.3-.2.4-.4,0-1-.1-1.7-.2-.3,0-.7,0-1.1,0-.4,0-.7,0-1,.1-.2,0-.3.3-.5.3-.4.1-.8-.2-1.1.2.3,0,.3.4,0,.5.2,0-1.3,0-1.8.2,0,0-.1-.1-.2-.1-.1,0-.2.2-.4.2-.1,0-.3-.1-.3,0-.1,0-.1.5-.5.4,0,0-.3-.3-.3-.3,0,0,0,.4-.2.5,0,0-.2-.1-.2,0-.1,0-.2.4-.4.4-.1,0-.8.1-1,.3,0,0,0,.4,0,.3-.1-.2,0-.3-.1-.4-.1,0,0,.2-.2.2,0,.2.1.3.2.3.1.4-.2,0-.2-.2,0,.2-.1.3-.3.3,0,0-.2.4-.3.5-.1,0-.3,0-.4,0-.3.2-.7.5-1,.6-.2,0-.1.4-.3.5,0,0-.2,0-.2,0-.2,0-.2.3-.3.4-.1,0-.3-.1-.4-.1-.1,0-.3,0-.4,0,0,0,0,.3,0,.4,0,0-.2,0-.2,0-.1,0,0,.2-.1.3-.1,0-.3,0-.4,0-.1.1-.1.9-.7.7.1.2-.1.6-.4.9,0,0-.3,0-.3,0-.4.5-.7,1.2-1.2,1.5-.1,0-.5-.2-.4.2.1.1.2,0,.2,0,.1.3-.2.7-.7.3.3.3,0,.2,0,.5,0,.1.2.5-.1.6-.3-.2-.2-.3-.1-.3-.1,0-.5-.3-.3-.3-.4-.3,0,.2-.2.2,0-.1-.2-.3-.4-.4-.2,0,0,.3,0,.3-.4-.4-.7-.3-.6,0,.5.3.7,0,1.2.5.1.2,0,.4.3.6-.2,0-.5-.3-.7-.3,0,.2.5.6.5.3.3.5-.5,0-.9-.1.2.3,0,.5.7.9,0,0-.1.1,0,.2-.3,0-.4.2-.9-.1,0-.2.1-.3.5,0l.2-.2c-.5-.4-.3.1-.8-.3,0-.2,0-.2.3-.1-.4-.3-.5,0-1-.3-.1.1.3.5-.1.5-.6-.4-.7-1-1.1-1.2-.1-.3.3-.2.3-.6.2.3.2.1.5.4.2-.2-.8-.7-.4-.9.1-.1.1,0,.3.1.2,0-.2-.3-.1-.3,0-.4.5,0,.6-.2,0-.3-.4-.1-.6-.4.2.1.2-.3.5,0,0-.2-.4-.2-.4-.2-.1-.3.4-.3.2-.7-.5-.2,0,.4-.2.4-.3-.2-.5,0-.7-.4-.4.1.2.5-.1.6-.2.2-.3-.2-.3.2,0,.2,0,.3,0,.5-.3,0-.5,0-.7.1,0,.3.2-.1.4.2.2.5-.8.5-.3,1-.2,0-.5,0-.5.2-.6-.6.5-.2.2-.6-.6-.1-1.2,0-1.8,0,.3.5.8.3,1,.2.5.3-.3.5.5.9,0,.1-.2,0-.4,0,.3.3,0,.6-.2.8-.3-.2.1-.3-.2-.5-.2,0-.5.1-.7.2,0,.2.4.4.7.6-.2.1,0,.5-.4.4-.7-.3.3-.2,0-.5-.7-.1,0,.5-.4.5.2.1.3,0,.6.2l-.3.6c-.4,0,.3-.4-.2-.6-.4,0,0,.6-.2.8.6-.1,0,.5,0,.7-.3,0,0-.4,0-.5-.7-.2-.4.4-.3.6-.5,0-.9.4-.5.8.4,0,.2-.4.4-.6.3.1,0,.3,0,.4,0,.2-.3.5,0,.7-.6.2-.4.6-.7,1,0,0,.3.1.3.2,0,.2-.3.2-.7,0,.3.6-.5.7-.4,1.2-.3,0-.3-.1-.6-.2,0,.1-.2,0-.2.2,0,.1.4.2.5.1.5.3,0,.6.2.9.2,0,.4.1.5,0,.3.2-.2.4,0,.7-.3-.2-.8-.2-.9,0-.4-.1.2-.1,0-.3-.3,0-.5,0-.5.1,0,.3.8.1,1,.3-.4.3-.3.3-.5.7h-.5c0,.3.5.5.3.9-.4-.1-.4,0-.5,0-.2,0-.6-.1-.6,0,.3.3.5-.2,1.1,0,0,.3-.6.2-.5.5,0,.1.3,0,.3,0,.4.2-.2.3-.2.5,0,.2.2.4.3.6,0,.2-.3.4,0,.5-.3,0-.3,0-.5,0,0,.2.5.3.1.4-.4,0-.2-.2-.4-.2-.2.3.4.2.3.5.4,0,.4-.3.9-.3,0,0,0,.2,0,.3,0,0-.2-.1-.3,0-.4.2-.6.3-.8.7.1.2.3-.2.6,0,0,.2-.2.4-.3.6h-.5c-.2.2,0,.2,0,.3-.1.3-.5.3.2.4.1-.2.5-.5.6-.1.4-.1,0-.6.1-.8.5,0,.3.3.3.5,0,.2,0,.5,0,.7h-.8c0,.4.3.4.8.3v.4c-.2,0-.2-.1-.4,0,.1.3-.2.5,0,.8-.1,0-.2,0-.3,0-.1.6.1.9,0,1.4.5,0,.8.1.7.5.6-.1-.3-.4.2-.6.3,0,.2.5.3.8-.3,0-.3,0-.3,0,0,.3-.6.1-.7.3,0,.4.4-.2.5,0,.2.3-.6.3-.3.6,0,.1.5-.3.8-.1-.3.3.4.5-.2.5.4.3.4.6.4,1,.7-.1.3-.4.3-.6.6-.1.1.3.3.4.1.1.5.1.4.3-.5.2-.5,0-.5-.1-.3.1-.3.3-.2.4-.4,0-.5,0-.7.3,0,0,.6-.3.8-.1.4,0,.4-.5.7-.3,0,.2,0,.1-.3.2.3.3.2.4.3.8-.7.3,0-.4-.5-.2-.4.3,0,.2-.2.5,0,.2.5-.2.4-.2.5-.1,0,.3.6,0,0,.3.5.3.2.6.5,0,.5.7.8,1.1.2.3.3.2,0,.6,0,0,.3,0,.3,0,.3.9,1,1.1,1.1,1.9,0,0,.3-.1.3,0,.1.1-.2.3,0,.4-.4.4-.5.2-.8.2.2-.3.4-.8,0-.7-.4.3,0,.3,0,.5,0,0-.3.3-.4.3,0,.2,0,.3.1.5.5-.2,0-.3.4-.5.2,0,.7.2.8-.3.2,0,.7.3.2.6.6,0,.6.6,1,1.1.4.5,1.1,1,1.5,1.3.2,0-.1.3,0,.4.2,0,.2.3.2.3.1,0,.5-.3.5,0-.3.5-.3.1-.5.2,0,0-.4.2-.4.2-.1,0,0-.6-.4-.2-.2.2.1,0,.1.2,0,0-.5.6-.1.5.3-.2-.3-.2.2-.5.4.1.3.8.6,1,.4-.4-.3-.4,0-.7.4-.5.5-.2.7-.6.7.3.9,1,1.1,1.5.6-.1,1.1.1,1.2.6.4-.4.4-.7.3-.8.2-.3.3,0,.5-.2.3-.5-.1-.1-.2-.2-.2-.1-.2-.4-.5-.6,0,0-.2.2-.3.2-.3,0-.1-.3-.2-.5-.2,0,0,.2-.3.3-.1-.6-.9-.5-.9-1.1.5-.3,0-.5.4-.9,0-.2-.6.7-.6.3-.1.1,0,.2,0,.2,0,.2-.2,0-.3,0,0-.2.2-.5,0-.7-.4.3-.1.3,0,.4-.4.4-.2,0-.3-.2-.2-.2-.7-.4-.8-.7.2-.2.3-.1.4,0,.5-.6-.3-.3-.5-.2-.3-.4.2-.9-.2-1.2-.5.3,0,.4,0,.6-.9,0-.6-1-1-1.2,0,0-.3,0-.3,0,0,0,.3-.2.3-.2,0-.1-.4,0-.5-.2-.1-.2.3-.6.1-.7,0,0-.3.1-.4.2-.1-.6-1-.8-.6-1.5,0,0-.2,0-.1,0-.3,0-.5-.7-.3-1-.2,0-.3-.2-.6-.2,0-.3-.1-.6-.1-1,0-.4,0-.7.2-1.1.6-.3.8-.6,1.4-.8-.3-.4-.3-.7-.4-1.2-.1,0-.3,0-.5,0,0-.1,0-.2,0-.3,0-.1-.4.2-.4.2-.1.3.7.2.3.5-.3,0-.5-.2-.6-.4-.1,0-.3.1-.3.2-.3,0,0,0,0-.1,0,0,.1-.2.6-.3,0,0,0-.2,0-.2,0,0,.3-.3.3-.3,0-.1-.5,0-.4-.2.6-.2.3-.4.8-.6-.2-.1-.6.2-.8.1-.1-.2.1-.3.4-.3-.5,0,.3-.5-.5-.3-.5.2.5.2,0,.3-.5.2-.3-.2-.4-.3,0,0-.3-.1-.3-.1-.2-.3-.2-.8.2-1.1-.2-.1,0-.5,0-.7,0-.1-.3-.3-.5-.3-.4.3.2.5,0,.8-.5,0-.5-.3-.5-.5,0-.2.3-.5.2-.8.5,0,.3.2.6.2-.1-.2-.5-.3-.6-.5.5-.2.1-.3.3-.6-.4,0,.1.4-.5.3,0-.2.2-.5-.3-.5.2-.2.3-.4.8-.5-.1,0,0-.3-.6-.2-.2-.2.5-.3-.1-.3,0-.2.6-.2.8-.4-.1-.2-.3.2-.8,0,.6-.4,0-.8.3-1.2,0,0-.3-.1-.3-.2.6.2.3-.1.8-.1-.3-.1-.4-.6-.7-.5-.5-.1.2-.1.2-.2-.1-.2-.4,0-.6-.2.2-.6.1-1.2.2-1.8,0-.1.2,0,.2-.2,0-.2-.3-.4-.1-.6,0,0,0-.2.4-.2,0-.3,0-.5,0-.8,0-.8.4-1.3,1.6-1.2.6.2,1.1.4,1.2.3.2.1.3.2.2.3.3,0,1.1.5,1.2.3,0,.2.7.4.9.6.1,0-.2.2.2.3-.6.4-.6,1-1,1.5,0,0-.3,0-.4.2,0,.1.1.3,0,.5,0,0-.2,0-.2.2,0,.2.4.4,0,.4,0,0,.3,0,.3.2,0,.1,0,.3,0,.4,0,0-.3.1-.3.1,0,0,.2.1.3.2,0,.1-.2.2-.2.4,0,.1.2.2.3.3.1.2,0,.4-.2.5,0,0,.1.1.3.1-.3.3-.1.8-.1,1.2-.2.1-.6-.1-.8.1.2.2.6,0,.8,0,0,.4,0,.6,0,1-.2,0-.3,0-.3-.2-.6.2.4.3.5.3.1.2-.4,0-.5.1,0,.1.2,0,.5,0v.4c-.3.1-.2,0-.6,0v.2c0,.1.6-.3.6,0,0,.2-.2,0-.6.1,0,.1-.2.1,0,.2,0,.1.7,0,.9,0v.4c0,0-.3,0-.6,0,.2,0,0,.3.6.1.2.3,0,.5-.6.6,0,.1.8.1,0,.3.1.1.6-.2.5,0,.1,0,.3-.1.3-.2,0,0,.6.4-.2.4,0,.2.6,0,.5.2h-.5c.3,0,.3.2.5.2,0,.2-.3.3-.5.4.7-.2.4.3.5.4,0,0,.2-.2.1-.2.5.2,0,.7.2,1-.5.3-.8.4-1.2.8,0,.2.4,0,.4.2.5-.4.7,0,.9-.4.3,0,0,.4.8,0,.5.4.5,1.3.8,1.8-.5.2-.4-.2-.5-.3-.1-.2-.1-.4-.3-.4-.2.2-.1.3-.4.5,0,.2.6-.2.7,0h-.3c.2.3,0,.6-.2.8,0,0,.3-.1.3,0,0,.1,0,.2.2.3-.1.2-.3.2-.4.3,0,.2.2-.1.5-.1,0,.1,0,.4.5,0-.1.4.4.7.4,1-.4,0-.3-.5-.5-.7-.2,0-.4,0-.7.2,0,.2.2.2.5,0-.2.3.3.3.3.6-.2,0-.2.1-.4.3.4.3.7.6,1.1,1.1,0,.2-.4.2-.5.4.1.2.6-.6.6-.1-.2.3-.7.4-.9.4-.4.4,0,.5.5,0,0,.1.2.1.2,0,.4.4.8.9,1.2,1.5.4.5.9,1,1.4,1.2,0,0,.1,0,.1-.1.2,0,.3.2.6.3-.3.4-.3,0-.4.4,0,.4.1.2.1.3,0,.2-.2-.1-.4,0,0,.3,0,.6.1.9.5-.5.8-.6,1.2-.8,0,.2.1.3-.1.7.5-.2.5.3,1,.5,0,.1-.1.3-.3.6,0,.1.2-.1.3-.3.1.3.5.3.8.5.5.2.7.8,1.1,1.1.2.1.5,0,.4.4,0,0,.2-.2.3-.2.1,0,0,.3.1.5.7-.4,1,.5,1.8.6,0,.4-.2.2-.3.7.3,0,.5-.9.8-.6-.1.2-.3.3-.4.9.2.2.4-.5.5,0-.1.3-.3,0-.4.4,0,.4.5-.4.7-.1,0,.4-.2.5-.4.4,0,.5.3-.2.4,0,0,.3.3.1.2.4.2-.2.6-.9.7-.6-.1.2-.2.5-.3.7-.1,0,0-.2-.2-.2-.2.7.3.5.4.4,0,.4-.2.4-.3.9.1-.2.3-.4.4-.6.2,0,.2.4.2.7-.3,0-1.2.4-1.3-.5-.2,0,0,.3-.2.4-.3-.1-.7,0-.8-.4,0,0-.1.2-.1.3-.4,0-.5-.6-1-.1,0-.5-.8-.5-1.2-.3,0-.4-.2-.5-.4-.7-.2.5,0,.6.1.9-.3.5-.1,0-.3-.1-.1,0-.2.5-.4.7.4.3.7-.1,1-.4.4.2.7.3,1,.5.3,0,.6.2.9.4-.2.1-.4.8-.6.8,0,.3.4.1.3.4.1-.3.1-.5,0-.5.1-.5.4-.1.6-.1,0,.2-.2.6,0,.6.2.2.2-.7.5-.3-.2.5-.2.3-.1.8.1,0,.1-.3,0-.3,0-.2.2,0,.3-.2.1.3.2.5,0,1,.3.2.4-.4.7-.1.3,0,.1.7.4.7.3-.2.5-.3.5-.9.4,0,.6-.1.7-.7.2,0,.2.3.3.2,0,.3-.1.3-.3.3,0,.4,0,.6.2.8.3-.2.3-.2.5,0,0,.5-.3,0-.2.6,0,.4.2,0,.2-.3.3,0,.4-.2.7,0,0-.4,0-.6,0-.8-.1.2-.3.1-.5.1.1-.7-.3-.6-.2-1.3.8.2,2.3,0,3,.4,0,.7-.2.2-.3.1-.6,0-1.6,0-2.2-.2.2.3.6.3.6.8.2.1.1-.6.4-.4.2,0,0,.3.2.3.2.3.2-.3.2-.3,0,0,0,.2.1.2,0,0,.1-.1.2-.1.3,0,.6.4,1,0,.1,0,.1.1.2.3.2-.1,0-.3,0-.6.2,0,.2.3.3.5.2,0,0-.5,0-.8.6-.1,1.1-.3,1.6-.3,0,0,.1.3.2.3,0,0,.3-.2.4-.2.1,0,.4,0,.4-.2,0,.1.2,0,.3.3.3-.5,1.2,0,1.7-.5.2.5-.1.4,0,.7-.3-.1-.5-.1-.7,0-.1,0,0,.6-.2.5.3.5.4-.4.6-.4.1.3.5,0,.6.6,0-.3-.2-.6,0-.9.2-.2.2.2.4,0,0-.5-.2-.2-.3-.2,0-.4.4-.5.6-.6.2,0,.4-.1.6-.1,0,0,.3.3.3.3,0,0,0-.3,0-.3.1-.1.4.3.4-.2.1,0,.2,0,.2.3.2,0,.1-.4.3-.4,0,.3,0,.4-.2.4.1.3.3.3.5.5.1-.1.3-.2,0-.7,0,0,.5.2.3-.3-.2-.3-.2.3-.5.2,0-.2.1-.3.2-.4-.2-.4-.5-.2-.6-.6-.2.3-.3.2-.6-.1,0-.3.5.5.3-.2,0-.2-.2-.1-.1,0-.3-.3,0-1.1-.5-.8-.2-.7.6.2.4-.6-.3,0-.5-.4-.8-.3-.1.2.2.4.2.7-.2,0-.3-.6-.5-.8-.1,0-.2.3-.4,0,0-.8.6-.2.9-.7,0,.2-.1.2,0,.6.3,0-.1-.7.2-.6,0-.2,0-.3-.2-.3,0-.4.3-.6,0-1.3.1-.2.2.2.4.2.3,0,.3-.3.5-.3.1.3.1.5,0,.5.4.7.6-.2,1,.6.2-.3-.4-.8-.5-1-.1-.3.2-.1.2-.3,0,.5.3.6.5.9.2-.4,0-1.1.4-1.2,0-.2.2.2.4.3,0,0,0-.2,0-.2,0-.2-.3-.3-.2-.6,0-.1.2.2.3.4,0-.2,0-.6.3-.7.2,0,.4.4.5,0,0-.2-.2,0-.2,0,0-.5.7-.3.9-.8.2,0,.5.6.6.5,0,0-.1-.2-.3-.4.3-.2.6-.4.7-.6.3.4.5.6.6.3-.1-.1-.2,0-.4-.3,0-.2.2.2.3.2.2,0,0-.5.3-.2.2.5-.3.3-.4.6,0,.1.2.5,0,.5-.2-.6-.4.1-.7,0,0,.2,0,.3,0,.5-.2,0-.5-.5-.7-.7,0,.5-.4-.2-.5,0,.4.8.7.4.9,1.1-.3-.2-.6-.3-.9-.9-.3,0,0,.5.2.6.1.2,0,.2-.2,0-.1.2-.3,0-.5,0-.1,0,.3.7.3.4.2.5-.4-.1-.2.3.1.2.2.2.3.4,0-.2.4-.1,0-.6.1-.2.4.3.5,0,.2.3,0,.2.1.5.2.3,0-.2,0-.2,0,0,.3.2.3.2,0,0,0-.4.1-.4,0,0-.2-.4-.3-.6.2-.2.5.2.7.3.2,0,0-.4-.1-.6.2,0,.5.4.8.6-.3-.6,0-.8.2-1.1.3.5.3,0,.5,0,.1-.2-.4-.7,0-.7,0,.1,0,.2,0,.3.2.3.3,0,.3-.2-.1,0-.3-.2-.4-.3-.4-.3-.3,0-.5-.4l-.4.3c-.2-.5.3-.2.4-.5.1-.2.4-.4.7-.6.3.4.4.4.7.7.4,0,.3-.3.7-.4.2.3.3.5.2.6.5.2-.2-.6,0-.7.1-.2.5.3.6,0,0,0-.5-.4-.5-.2-.4-.6.3,0,.5,0,0-.3-.3-.4-.5-.8.2-.1.4.5.7.4-.2-.3.1-.3-.4-.7.3,0,.2-.5.5,0,0-.2.5-.2.3-.5.2,0,.2.2.4.3.2,0-.3-.4-.3-.5.5.3,0-.3.3-.4.2.2.3.4.5.6-.5.4-.7.7-.8,1.1-.2.4-.3.8-.6,1.2,0,0,.2.2.3.2,0,.2-.1.6-.3.6,0,0-.3-.2-.4-.1,0,0,0,.2,0,.2-.1,0-.2-.4-.4,0-.5-.8.2-.5.2-.8-.6-.2-1.1-.2-1.5,0,0-.1-.1-.2-.3-.4,0,.3.4.7.7,1,.3,0-.2-.5,0-.6.4.6.7,1.3,1.1,1.1-.3.4-.6,1.3-1.4,1.2.1.5-.4.6-.7.8,0,.1.3.5,0,.5-.4-.3-.5-.5-.8-.8-.2.3-.2.2-.5.4.1.3.3.3.4.5,0-.3.2-.4,0-.7.9.6.5,1.3,0,1.2,0,0,0-.3,0-.3,0,0-.3.2-.1.4-.2,0-.4.2-.7.4-.3.2-.6.4-.8.6-.3.3-.8.2-1.1.5-.1.1-.2.5-.4.6-.2.1-.5.2-.5.6.2.5.5.2.7.7.2-.4.7-.4,1.1.1-.2-.6,0-.9.2-1.1-.1-.4-.3-.3-.4-.7.3-.3.6.7.6,1.1.1,0,.3-.2.6,0,.1,0-.4-.5-.3-.7-.1-.2,0,.6-.5.2,0-.2,0-.4,0-.6.5,0,1-.5,1.7-.8.3.2-.4.2,0,.6.2.3.4.2.5,0,.2,0-.2-.5,0-.5,0,.5.4.5.4.3,0-.2-.4-.6,0-.2.3.3.6.4.6,0-.2-.2-.4,0-.7-.5.2-.2.4.3.6.2,0,0,0-.2,0-.2-.2-.4-.3-.2-.4-.3-.2-.3,0-.2.1-.2,0-.2,0-.3,0-.4.2-.2.6-.4.9-.6.1.4-.1.3-.4.4.2.3.4.1.5,0,.3.4.5.4.7.5,0-.3-.4-.2-.6-.7.3-.3.8.6,1.2.7.2-.2.5-.1.7-.1,0,0-.3-.4-.3-.6.2-.3.7.3.9-.1.4.6.6.3,1.1.9-.5-.1-.3.5-.2.8.2.1.2,0,.3,0,0,.1.2.3.3.5-.1.1-.3,0-.5-.2-.1,0,.2.6,0,.3-.3-.1-.3-.2,0-.3-.3-.1-.6-.6-.5-.8-.4-.3,0,.4-.3.4-.2-.3-.5-.4-.7-.8-.2.1.4.7.2.8.2.3.3,0,.6.4-.1,0-.2.4-.4.1,0,.2.2.5-.1.6-.2-.5-.5-.8-.7-.4-.4-.2,0-.5-.5-.6,0,.2.1.4-.1.5-.1-.2-.2-.2-.3-.2-.2-.3-.4-.8-.7-1,0,.2.3.6,0,.6-.4-.5,0-.4-.4-.8-.3,0,0,.5.1.7-.2,0-.4-.6-.5-.2,0,.2.3.5.2.8.3.3,0-.4.3-.3.1.4.3.2.4.3,0,0,.2.3.3.4.1.1.2,0,.4.3,0,.2,0,.3-.2.3,0-.2,0-.3-.1-.5-.2,0-.2.2-.2.5.4.6.7.3.8,0,.3.3,0,.3,0,.4.3.2.6.5.6.9.1.1.2,0,.3.2.1-.2-.1-.6.3-.4.3.6-.4.8-.8,1-.2.2-.3.5-.6.5,0,0,0-.3.2-.3-.4-.2-.2.3-.4.4-.1,0-.4-.2-.4-.1-.1,0,0,.5-.1.6,0,.1-.2,0-.4,0-.2.1-.4.7-.7.4-.3-.7-.1-1.1.4-1.1-.3-.4-.5-.2-.8-.1-.2.2,0,.2.2.6-.2,0-.2.1,0,.4-.1,0-.4,0-.2.4.1.3.2-.3.4,0-.2.5-.8.3-1.2.7,0,0,0,.3-.2.4-.3.2-.8.5-1.1.6-.6.3-1.2.6-1.7.6,0,0,0-.3,0-.3-.1-.1-.1.3-.3.3-.1-1,0,.3-.6.2,0,0,0,.3,0,.5-.4,0-.8.3-1,0-.3,0,0,.5-.4.4-.2-.5-.1-.7.2-.7-.1-.5-.4-.4-.6-.3,0,.5.2.5.3.9-3.9,1.5-8.1,1.1-11.9.4-.6-.1-1.2-.1-1.8-.4-.1,0-.2.1-.3,0-.3-.1-.8-.4-1.3-.5-.3,0-.6,0-.9,0-.4-.2-1.4-.8-2.1-.8-.4,0-1.1.2-1.3-.6-.5,0-.8,0-1-.5,0,.2.1.2,0,.5-.5-.5-1-.4-1.6-.9.1-.2.2-.1.4-.3-.2-.3-.4.3-.7.3-.1-.1.3-.6.4-.7-.2,0-.5.1-.7,0,0-.4-.4-.2-.6-.4-.1,0-.1-.3-.3-.4-.2,0-.7,0-1-.4,0-.1,0-.4,0-.4,0-.1-.5.3-.3-.3-.3,0-1.1-.2-1.4-.4-.1,0-.1-.3-.2-.3-.1-.1-.2,0-.3-.1-.1-.1,0-.3,0-.4,0,0-.2,0-.3,0-.2-.3-.5-.9-.8-1-.1,0-.4,0-.5,0,0-.1,0-.3,0-.4-.3,0-.5-.3-.6-.5-.1-.1-.5-.1-.6-.2-.1-.1,0-.3-.1-.4-.4-.4-1.1-.9-1.5-1.4,0-.1,0-.2,0-.3-.4-.4-.9-.7-1.1-1,0-.2,0-.2.1-.4-.3-.3-.7-.6-1-1,.1-.1,0-.3.3-.4,0,0-.3,0-.4.2-.2-.5-1.1-.5-.7-1.2-.2-.2-.2-.3-.4-.6.1-.2.2-.3.6-.5-.2-.3-.4,0-.7,0-.3-.3.2-.5,0-.8,0-.1-.5.2-.6,0,0-.5-.6-.9-.6-1.5,0-.2.1-.5,0-.7-.1-.5-1-1.2-.4-1.8-.1,0-.3,0-.5,0,.3-.7-.6-.8-.3-1.5-.7,0-.4-.3-.6-.6-.2,0-.4.2-.4.3,0,0,.3,0,.4.2,0,.1-.2.2,0,.3,0,.1.3.2.4.3,0,.2,0,.3,0,.6,0,.2.3.4.2.9,0,.1-.2.3-.2.3,0,0,.3.3.3.5,0,.3.1.3.2.7,0,.3.2.7.4,1.2-.2.1-.3,0-.5,0,0,.3.3.5-.2.7,0,0,.3,0,.5,0,.3-.1,0-.3,0-.5.6,0,.7.7.7,1.2,0,.3.7,0,.3.3-.2.3-.3,0-.5,0-.1,0-.3.2-.4,0,0,0,.1-.2,0-.2.2,0,.2,0,.3.2.3-.4-.3-.5-.2-.9-.8.2.3.7-.6.9.4.4,1.1.2,1.1.9.6-.2,0-.5.5-.7.2.4.3.7.1,1-.3,0-.5-.5-.8,0,.1.1.6-.2.6.1-.8.3-.2.8.2.7.2-.2.2-.4,0-.6.6-.2.3.3.5.6-.6.1-.5.4-.6.8.6-.2.3-.6.8-.5,0,.3-.5.5-.3.8.2.2.1-.2.2-.3.7.6,1.3,1.7,2,2.7,0,0,0,.6.5.4,0,.3.2.6.4.9.2.3.5.5.6.7-.5.2-.6-.3-.9-.6-.3-.4-.6-.9-1-1.1-.4.3-.2.4-.7.6.3.2,0,.6.4.5,0-.1,0-.3,0-.6.8-.3.2.5.5.8.3-.2-.3-.3.2-.5.6.9,1.4,1.8,2.3,2.8.9.9,1.8,1.8,2.7,2.5.1,0,.1.3.3.4.2.1.4,0,.5.2.2.2,0,1,.6.7-.2.3.2.4,0,.7.1,0,.3-.2.2-.3.9.2,1.6.6,2.2,1.2.3.2.6.5,1,.7.3.2.7.3,1,.3,0,.1,0,.1-.1.3.4,0,.7,0,1.1.2-.2.4-.4,0-.6.4.3.2.9-.2.9.3-.3.6-.3-.3-.6.2-.3,0-.2-.4-.5-.4,0,0-.2,0-.2,0-.2.3-.2.5-.1.6-.4,0-.7.6-.8.8-.1.6.5.3.6.6-.2.5-.3,0-.4,0-.1,0-.2.2-.2.2-.3,0-.6-.3-1.1-.4,0-.3.4-1.1.7-1,.2-.3,0-.7-.2-.5-.1-.4.4-.3.5-.6-.2-.1-.3,0-.5.3-.3,0,0-.5-.3-.6.4-.4.4.5.9,0,.3.1.3.9.9.6.4-.5-.7-.4,0-.7-.5.2-.6-.3-1.1,0-.1-.1-.3-.3,0-.6-.6.2-1.1-.5-1.6-1-.5.1-1,0-1.1-.4-.3,0-.6,0-.9-.1.2-.2.3-.2.4-.4-.2-.2-.4.1-.6.1-.3-.2-.5-.6-.8-.5,0,.2,0,.4.1.5-.3.1-.6-.3-.9-.1-.3-.3-.1-.8-.3-1.1-.1,0-.1.2-.3.4-.3-.3-.1-.7-.5-.9-.1,0-.3.2-.4,0-.2.2-.1.3,0,.4-.4,0-.5-.3-.5-.7-.2,0,0,.3-.4.3-.2-.3.6-.8,0-1,0,.2,0,.3-.2.5,0-.4-.5,0-.5-.3,0,0,.4-.2.3-.3,0,0-.4,0-.3.1-.3.3-.3-.5-.5-.2-.2.4.8.5,0,1,.1,0,.3-.2.5-.4l.4.3ZM20.6,70.1c.2-.4.4-.9,0-1l-.4.8.4.2ZM21.4,68.3h-.3c-.1.3-.4.9,0,1,.5-.6-.3-.4.2-1ZM15.6,63.9c.2.2-.5.7,0,.8.4-.3.1-.4.2-.6.2-.2-.2-.5-.3-.2ZM53.6,59.5c0-.3.3-.4,0-.9-.3,0,.1.4,0,.5-.2-.3-.4-.6-.6-.5l.6.9ZM50.4,61.1h-.2c.3.5.2.6.4,1,.3,0,0-.6-.2-1ZM51.2,62.2c0,.5.3.7.2,1.1.2-.2.3-1-.2-1.1ZM52,60.9c.3.4.2.9.6.7-.4-.4-.1-.5-.2-.8-.1.1-.2,0-.4,0ZM51.5,60.1c-.1-.2,0-.3-.1-.5-.1,0-.2-.1-.3,0,.2.3.3.5.5.5ZM52,61.8c0,.2,0,.3.3.6.1,0,.2,0,.4,0-.2-.4-.4-.7-.6-.5ZM49.8,60.7c.4.2.3-.4.7-.4.1.2.2.2.4.3.1.2,0,.2,0,.3.2,0,.5.5.7.3.1-.1,0-.4,0-.5-.4-.6-.8-1-1.2-.9.1.3.2.1.3.2.1.1.5.5.5.6-.2,0-.5-.2-.7-.7-.3.2-.6.4-.7.7ZM48.2,58.2c.2,0,.3-.2.2-.5,0,.4-.2,0-.4,0l.2.4ZM46.2,57.1c0,.1.6.2.3-.3-.2-.3-.5,0-.3.3ZM46.3,58.9c.3-.2.8.4.8-.2-.3-.8-.5-.5-.5-.1-.2.2-.4-.2-.4.3ZM45.5,59.2c.4.4.3-.6.7-.2-.4-.7-.6,0-.7.2ZM44.6,57.7c.3,0,.8.5.7-.2-.2.3-.7-.2-.7.2ZM49.8,62.9c0,0,0,.2,0,.2.2.4.3.4.5.3-.2-.4-.3-.6-.5-.5ZM48.5,60.5c.2.6.4,0,.7,0,.1.5.3.5.6.4-.4-.9-1.1-.7-1.2-.5ZM49,61.4c.2-.2.3.1.5.3.1,0,.2-.2.1-.4-.3,0-.4-.1-.4-.5-.2,0-.3.6-.2.6ZM49.9,63.5c-.3,0-.5-.8-.8-.5,0,.3.3.2.4.5,0,0,0,.2,0,.5,0,.1.2.3.4.1-.4-.7,0-.3,0-.7ZM47.8,63.4c-.4-.8.7,0,0-.9.3,0,.2-.3.3-.5.4.2.7.4,1.1.4l-.3-.6c-.3.2-.5.2-.6-.4-.3.2-.5.6-.8.8.4.6-.5.7.2,1.1ZM47.8,65.7c.3-.2.4-.5.6-.8.4.2.8,0,1.2-.2-.1-.3-.3-.5-.4-.7,0,.2-.4.2-.4.5.3.2.2-.3.4,0,0,.4-.5.2-.7,0,.3-.4-.1-.6,0-1,.1,0,.2,0,.4,0-.2-.4-.4-.2-.5-.6,0,0,.3-.4,0-.3-.2.2.1.9-.3,1,.5.6.2.7,0,.8.2,0,.2.6,0,.6-.3-.7-.7-.2-1-.7l.3.7c.2,0,.4-.2.6.1-.2.1-.7,0-.3.6ZM46.4,63.2c-.2.2-.3-.1-.4,0,0,.7.6.4.4,0ZM46.5,64.8c.4,0,0-.4,0-.5.2,0,.5,0,.3-.4-.3,0-.4.4-.6.2.2.4,0,.4.2.8ZM46.3,65.7c.1,0,.5.3.5-.2,0,0-.1,0-.2-.3-.2,0-.4,0-.3.4ZM45.6,65.6c-.2.2-.2-.5-.4-.2-.1,0,0,.5-.2.4,0,.5.3,0,.3.6-.2,0-.6-.5-.5.1.2,0,.3.3.6.2.2-.3.3-.8.7-1,0-.2-.1-.4,0-.5.3-.3-.3,0-.2.2,0,0-.4-.5-.4,0,0,0,.3.2.2.3ZM44.4,64.8c.1.2.3.1.5,0,0-.5-.3,0-.3-.6.2-.2.3,0,.5,0,0-.3,0-.2-.2-.6-.2.2-.6.1-.6.6.4,0,0,.3,0,.5ZM44.3,65.7c-.2-.3-.5-1.4-.6-.8.1,0,.2.2.3.6-.1,0-.4,0-.2.4.3-.1.5,0,.7,0,.1,0,.6-.1.3-.2h-.4ZM44.1,63.7c-.1,0-.8-.2-.6,0,0,.3.6.4.6,0ZM43.3,63.3c.3.1,0-.5.2-.4.1,0,.2.4.3.3l-.2-.6c-.2.2-.4-.1-.6,0,0,.5.3.3.2.7ZM43.1,64.9c0,.5.8.4.5.2-.3.3-.3-.5-.5-.2ZM42.5,63.6c.2,0,.4.4.7.3,0-.5-.6-.7-.7-.3ZM41.8,64.2c.2,0,.7.5.7,0-.2,0-.7-.4-.7,0ZM41.7,65.7c.2,0,.5.7.5.2-.1-.2-.5-.9-.5-.2ZM41.9,67.1c.2.3.7,0,1,0,0-.6-.5,0-.5-.6.1,0,0-.4-.1-.3,0,.2.2.8,0,.8-.1-.3-.4-.3-.4,0ZM38.8,67.2c-.2,0-.3-.3-.5-.1-.1.5.5.4.5.1ZM41.2,63.9c0,0-.1,0-.1.2.3.1.2-.5.2-.8h-.3c0,.5.2.3.2.6ZM41.4,66.9c0,.4.2.5.3.6,0-.2,0-.3,0-.6h-.3ZM39.9,64.1c.4.1.4-.3.7-.4,0,.4-.2.4-.2.6.3.4.4-.4.4-.7-.4-.2-.6.2-.9-.4.1.4,0,.4,0,.8ZM40.4,66.4c-.8.3.4.4.3-.2-.1,0-.2.1-.3.2ZM39.3,66.3v.8c0,.2-.5.1-.3.3.3,0,.6,0,.8.1,0-.8-.4-.2-.4-.9.2,0,.2-.2.3-.2,0,.8.9,1.3.9.4-.3,0-.6,0-.7,0-.2-.7.2-.4.1-1-.4,0-.4.6-.8.5ZM38.1,64.1c.2-.1.2.3.3.3.2-.2-.1-.4,0-.5,0,.3,0,0,.2,0,0,.5-.1.5,0,.8.1,0,.3,0,.3-.2,0,0,0-.1,0-.2.4-.2.4.5.6.6,0-.6,0-.9,0-1.5-.3.2-.4,0-.7-.1,0,.2,0,.4-.1.3-.2,0-.2-.5-.5-.3,0,.3-.2.3-.1.8ZM38.2,65c.3.4.2.6.4.1,0,.6.2.4.2.9.2.1.3-.5.1-.5,0,.2-.1.2-.2,0v-.3c.1,0,.5.2.5-.2-.2-.3-.4,0-.5,0-.2-.6-.5-.3-.8-.5,0,.4.1.2.2.3ZM37.3,66.3c.1,0,.3,0,.4.3h-.6c0,.2-.1.4,0,.8.5.2.5-.5.9-.5,0-.3-.2-.3-.2-.5,0,0,.2-.2.2-.3,0,0-.2-.1-.2-.2,0-.1.2-.4,0-.3.2.8-.4.2-.4.6ZM36.6,65c.1.3.5.2.8.2,0-.9-.5-.5-.8-.2ZM36.4,65.7s0,0-.1-.1c0,0,0-.3-.2-.3,0,0-.3,0-.3.3.1.1.5-.1.5.2-.4-.2-.2.4-.3.4,0-.2-.3-.2-.5-.2,0,.7.6.4.9.7,0,.2,0,.2,0,.3.2.1.2.1.4,0,.1-.6-.4,0-.2-.6h.4c0-.6-.4,0-.4-.5,0-.2,0-.2,0-.2,0,0,0,0,0,0ZM35.2,65.1c.4.2.2-.2.3-.3.3,0,.6.4.9.2-.1,0,0-.4,0-.6-.4.4-.6,0-1.1,0v.6ZM33.2,64.5c0,.2,0,.3,0,.5.2,0,.3-.2.4-.4,0-.2-.2-.2-.4,0ZM32.1,65.7c.2,0,.4.3.5,0,0-.2-.4-.4-.5,0ZM30.1,66.3c0,.3.1,0,.3,0,.2-.6-.2-.7-.3,0ZM30.4,64.8c.1.2.4.8.7.4-.2-.1-.5-.6-.7-.4ZM29.6,62.4c0,0,0,.5.2.4v-.4s-.1-.1-.2,0ZM28.8,62.8c.1.4.5.3.7-.4,0,0-.1-.4-.3,0,0,0,0,0,0,.2-.2-.2-.3.1-.4.3ZM28.1,61.9c-.3.7.3.1.4.2.2,0,.3.6.6,0-.3,0-.7-.4-1-.2ZM26.9,63.2c0,.2.3.4.5,0-.2,0-.3-.3-.5,0ZM31.7,61.2c.2,0,.1.5.5.4.2-.7-.2-.6-.5-.4ZM31.1,60.8c.3-.1.2.7.4.3-.2-.2,0-.4.1-.6-.2,0-.4,0-.6.3ZM30.7,59.2c0,.4-.3.9,0,1,.2-.6,0-.7,0-1ZM30.3,59.9c.3.3-.5.8,0,.9.2-.4.3-1.2,0-.9ZM28.4,59.8c0,0,0-.3.1-.5-.1,0-.2,0-.3,0-.2.3,0,.7.2.4ZM28.7,57.8c0,.2-.2.5-.2.6.1-.3.2,0,.1.2,0,.2-.2,0-.3.4.3.2.7,0,.9.2.1.1,0,.6.2.7-.2,0-.7.2-.7.5.3-.4.7-.2.9-.6,0,0-.2-.2,0-.3,0,.1.4-.3.3.1,0,0-.2,0-.2,0,0,.2.2.3.2.6-.1.2-.2.3,0,.5,0-.5.3-.1.4-.7-.2,0-.3.2-.2-.2.2-.4.4-.8.6-1.3,0,0-.2,0-.2,0-.2.3,0,.6-.1.6,0,0-.3,0-.2-.2,0,0,.2,0,.2,0-.1-.3-.3-.2-.5-.2-.1,0-.2-.5-.4,0,.3,0,.2.6.4.8-.3.4-.2-.5-.3-.6-.1,0-.6.2-.5-.2.2-.4.3.3.5-.3-.4.1-.3-.2-.6-.4ZM26.1,60.4c-.2.4-.3,1.3.1.9,0,0,0-.2,0-.3.2-.1.3,0,.5,0-.3.4,0,.4-.1.6.2.2.3,0,.5,0,.1-.5,0-.3.3-.7-.5-.2-.9-.5-1.3-.7ZM24.1,60c.2.2.4.2.6.2-.2.3-.3,0-.4.3,0,0,.1,0,0,.2,0,0,0,0,.1,0,.1-.2.3-.5.4-.5-.2.6.3.2.5.3l-.2.4c.5-.3.4.8.8.2-.3,0-.3-.6,0-.9-.3-.1-.5-.1-.8.1-.4,0-.4-1.3-1.1-.5ZM25.3,55.4c.3,0,0,.3.4,0,0-.2-.1,0-.2-.3l-.3.4ZM23.4,57.6c0,.2,0,.3.2.4.4-.4-.1-.5-.2-.4ZM22.5,58.7c.4.3-.3.4-.3.7.2.3.5.2.8.3.3,0,.1-.5.4-.5,0,.4,0,.7,0,1,.2,0,.4-.3.7-.7-.2-.2-.5-.4-.4.1-.2-.2,0-.6-.3-.7-.5.5-.5-.5-.9-.2ZM22,59.3c0,0,0-.2.2-.3-.2-.1.2-.5,0-.6-.2,0-.6,1.1-.2.9ZM18.1,32.1c0,0,0-.1-.1-.2-.2.2-.7-.4-.6,0,.1.1.3.1.7.3ZM13.5,34.2c0-.3.3-.4,0-.7-.1,0-.2.5,0,.7ZM17.2,37.4c0-.2.2-.2.2-.3-.5,0-.7.3-.2.3ZM17.3,38.2c-.4-.1.3-.3-.2-.4-.1,0-.4.5.2.4ZM17.9,43.5c-.2,0-.6.1-.8.1,0,0,0,.2,0,.2.4-.1.7-.2.7-.3ZM15.8,47.3c-.2-.2.6-.4.2-.6-.5.2-.3.4-.7.4,0,.2.2.3.4.2ZM19.6,46.5c-.2,0,.2-.2.2-.3-.4.2-.4.3-.6.5-.3.1-.2,0-.6.2,0,.4.4,0,1-.3ZM20.8,49.5c0-.2-.2-.2-.4-.1.2.1-.2.5.4.1ZM19.2,52.7l-.2-.2c-.5.3-.2.7.2.2ZM21.3,51.6c-.1-.1-.2-.3-.5,0,.1,0,0,.5.5,0ZM21.6,52.6c0-.2-.6-.2-.7.1.2-.1,0,.6.7-.1ZM21,55.3c.3-.4.3-.6,0-.8-.7.5-.2.6,0,.8ZM23.9,53.8c.1-.4-.3-.2-.1-.8-.3.3,0,.2,0,.4,0,.3-.2.8.2.4ZM21.9,58c-.3-.1-.7,0-1.1.3.2,0,.1.7.5.4,0-.2.5-.7.6-.7ZM20.1,57.3c-.4.4.2.4.2.6.1,0,.3,0,.3,0-.3.3-.3.5-.1.5.3-.3,0-.4.4-.7.1.3.4,0,.6,0-.4-.1-1.3,0-1.4-.4ZM17.6,54.4c0,0,0,.1-.2.3.2.1.2,0,.2.3.4-.3,0-.6,0-.5ZM16.6,53.5c0,.2.2.2.4,0,0-.1,0-.2,0-.3l-.4.3ZM16.4,53c-.3.3-.7.7-.5.9.5-.3.2-.3.4-.5,0,0,.2,0,.2-.2l-.2-.2ZM13.2,49.2c0,.2.2.3.5.3-.1-.2.2-.4.1-.5l-.6.3ZM17.5,24.2c.3.2.2.3.3.6,0-.1.4.2.4,0-.1-.1-.6-.8-.7-.6ZM18.1,22.8c0,0-.2,0-.3-.1-.2.1.1.4.2.5,0-.1.4-.2.1-.4ZM48.9,14.7c-.2,0,0-.7-.3-.3,0,.1,0,.7.3.3ZM49.3,16.2c-.1,0,0-.2.1-.5-.1-.2-.3.1-.5-.1-.1.2,0,.8,0,.8,0,0,.2-.3.2-.2-.1.2-.1.5.1,0ZM50.8,16.1c.2-.3,0-.7-.2-.5,0,.2,0,.4.2.5ZM62.8,33c0,.3.8.2.6-.1h-.6ZM62.1,31.2c-.5.1-.4.3-.4.5.5,0,.4-.3.4-.5ZM73.2,27.2c-.2.2-1,.2-.8.5.2,0,.4,0,.8,0,0-.2.1-.3,0-.5ZM72.7,24.4c-.3,0-.2.2-.4.4-.4,0-.8,0-.7.5.2,0,.3-.2.4-.2,0,.2.2.3.5.1-.2-.3,0-.5,0-.7ZM59.1,29.1c.2.1-.1.7.5.5.4-.2-.4,0-.2-.2.2,0,.3-.1.3-.2-.5.3-.2-.2-.5,0ZM71.3,24c.1.2.5.5.9.2-.2-.4-1.1-.2-.8-.8-.4,0-.2.4-.1.6ZM70.1,23.1c.4,0,.5.3,1.1.1,0-.5-1-.6-1.1-.1ZM57,24.4c0-.2.4-.4.2-.5-.4.2-.5.7-.2.5ZM56.9,17.4l.4-.4-.2-.2c-.3.3-.4.5-.3.6ZM48.5,12.2c.2.1.7.2.7,0-.2,0-.7-.3-.7,0ZM48,10.7c.1.2,0,.6.3.6.1-.3,0-.9-.3-.6ZM46.5,12.5c.3-.6-.4-.3-.5-.2.1.1.2.4.5.2ZM44.3,10c.2,0,0,.4.1.5.3.1.6.2.8,0,0,.2.1.2.1.4.6-.3,1.1.1,1.4.4,0-.3.5,0,.3-.2-.1,0-.2,0-.3,0,.1-.4-.1-.6-.2-.8-.1-.1-.2,0-.4,0-.2,0-.3-.5-.5-.5-.1,0-.2.2-.3,0-.2-.1-.7-.4-.9.2ZM34.8,9.5c.2,0,.4.4.6.5.2,0,.2-.3.4-.3,0,0,0,.1,0,.2,0,0,0-.2,0-.2.4,0,.6-.2.7-.6-.3-.1-.8.3-1.2.3-.2,0-.6-.5-.6.2ZM26.9,17.7c.2,0,.4.2.3-.1-.2-.5-.5-.2-.3.1ZM27.5,16.3c-.4-.2,0,.7.2.8-.2-.4.1-.3-.2-.8ZM26.9,15.7c.2,0,.3.4.5.3.2-.5-.7-1-.5-.3ZM34.7,10.1c0-.5-.2-.5-.2-.9,0,0,.2,0,.1-.2-.4,0-.4,1.1,0,1.1ZM28.6,3.6c.3.2.6,0,.7-.3-.4.1-.7-.2-.7.3ZM26.1,4.5c.3-.4.4,0,.7,0,0-.4,0-.5-.2-.7,0,.3-.7.1-.5.6ZM21.1,6.9c.2.1.5,0,.4-.3-.2-.1-.5,0-.4.3ZM25.2,14.1c.4.2.3-.2.5-.4.2.6.3,0,.3,0,.2,0,.4.3.5.3-.3-.6.2-.4,0-.9.1,0,.3-.3.4.2-.2.1-.4-.2-.3.3.2,0,.3.1.4,0,0-.1.2-1.2.5-.5,0,0,0,.1,0,.1,0-.4.6.5.4-.3-.1-.2-.3,0-.4-.2.3-.2.7.2.7-.4,0,0,.3.4.3.4,0,0,.4-.2.5-.2,0,0,0,.3,0,.3.1,0,.2-.4.4-.2,0,.2.1.4.2.4,0-.3-.1-.5-.3-.7.3-.2,0-.6.2-.8.1,0,.2.4.4.2,0-.3.1-.3.2-.4.4-.2.9-.5,1.5-.3,0-.2,0-.5.2-.5.8-.2,1.2-.4,2-.5,0-1.1-.6-.2-.9-.2-.5,0-1-.1-1.4-.2,0,.3,0,.4,0,.5-.7-.2-1,.3-1.5.6-.1-.3.1-.5-.2-.4,0,.3-.2.4-.2.7-.6,0-1,.5-1.4.2-.2.4-.5.5-.8.3.3.7-.3.5-.3.7,0-.3,0-.3,0-.7-.2.3-.4,0-.7.2.1.6.3,0,.5.3.2.5-.4,0-.6.4,0,.2.1.3,0,.3,0-.5,0-.1-.3,0-.3,0-.6.1-.5.6-.1-.2-.2-.4-.2-.6-.3,0,0,.4-.2.6-.5,0-.9.3-1.2,0,0-.2,0-.4-.2-.4,0,.2.2.6.1.8-.2,0-.6-.4-.4.2.4,0,.5-.4.8,0,0,.2-.2.3-.3.5-.2.3-.1,0-.4,0,0,.5.5.5.8.3.3-.1.6-.5.5-.7ZM22.5,16.4c-.3-.5-.5-.3-.5,0,.3.5.5.3.5,0ZM22.8,20.1c.2,0,.3-.3.5-.2-.2-.2-.8-.6-.6-.3,0,0,0,0,.1,0,0,0-.1.2,0,.4ZM21.5,19.2c.3.1.3-.1.2-.4-.3-.2-.4.1-.2.4ZM20.8,18.8c.4.5.4.2.5,0-.3-.4-.3,0-.5,0ZM14.9,12.2c.5.1.2-.5.2-.8-.3.2-.4.4-.2.8ZM14.2,11.6c-.3-.4-.5-.2-.7,0,.3.4.5.2.7,0ZM13.8,13.2c.2-.1.4-.3.2-.5-.3,0-.6.2-.2.5ZM18.3,19.2c.4,0-.2-.4,0-.5.2,0,1.1,0,.6-.5-.3,0-.3.5-.6.3,0,0,0-.2,0-.2.1.3-.6.3,0,.8ZM12.9,14c0-.3.3,0,.4-.2-.2-.2-.4-.3-.5-.4-.2.2,0,.4,0,.6ZM17.1,21.2c0-.5.7-.2.4-.6-.3,0-.7-.3-.9-.1.1.2.2.3.5.4,0,0,0,.2,0,.4ZM15.8,21.1c.2-.1,0-.3-.3-.6-.1.2,0,.5.3.6ZM13.2,24.3c0,0,.2,0,.3,0,.3,0,0-.6.3-.4.3.2-.2.3.2.5.4,0,0-.3.2-.5-.5-.2-.5-.3-.8-.4,0,.4,0,.6-.2.8ZM12.4,28.9c0-.1.2,0,.3-.2-.4,0-.3-.2-.7-.3,0,.2.2.4.4.6ZM12,29.8c.2-.1.6,0,.5-.3-.2,0-.3,0-.5,0-.4-.4.5-.3.2-.5-.5,0-.4.4-.7.5.2,0,.6.2.6.3-.3,0-.2.2-.4.2.3.6,0,.2.3,0ZM.8,40c0-.4.3-.6-.2-.8,0,.1-.2,0-.3,0,.3.3-.5.7.5.8ZM1.1,40.1c.2,0,.2-.2,0-.2-.1.2-.6.2-.6.5.5,0,.3-.3.6-.3ZM.9,41.6c.2-.2.1-.6-.4-.6.3.3-.2.5.4.6ZM6.4,42.7c-.1-.2-.2-.5-.5-.5-.1.4,0,.4.5.5ZM1.3,44c0-.4.1-.5-.4-.6-.3.3,0,.6.4.6ZM7.2,49.1c0-.2-.1-.4-.3-.5-.3.1-.5.2-.5.4.6-.3.5,0,.8,0ZM7.1,49.8c0,0,.5-.5,0-.4-.6.5-.2-.2-.4-.2-.9.3,0,.7.4.6ZM6.4,54.4c.1-.2,0-.7-.4-.5.4,0,0,.6.4.5ZM8.4,57.5c-.2,0-.3,0-.4,0-.4.2-.5.5-.5.7.2-.2.4-.1.4,0,.4-.2.4-.5.5-.7ZM8.3,58.7c.3-.3.4-.5.6-.8-.3.3-1,.5-.6.8ZM10.8,56.9c-.4-.1-.5-.8-1.1-.6,0,.3.1,0,.3.1.2.2.3.8.9.4ZM11.8,60.2c.2,0,.4.2.8,0-.3-.1,0-.3-.2-.5l-.6.5ZM10.7,60.4c-.1-.2-.3-.3-.4-.3-.3.2-.7.7-.3.5,0-.3.6-.2.8-.3ZM11.4,61.9c-.3-.1-.3-.8-.7-.4.3.1.3.9.7.4ZM11.5,61.8c.5-.5-.4-.7-.5-1.1-.2.2-.3-.2-.5,0,.5.5.8.3,1.1,1ZM29.2,12.5c0-.4,0-.6.3-.7,0,.2,0,.3-.1.3,0,.1,0,.1.1.1,0,.2-.1.2-.2.2ZM49.9,58.9c.2.5-.1.3-.3.3-.2-.4.1-.3.3-.3ZM12.2,31.2c.2.2.3.8-.1,1-.6-.1,0-.1,0-.2-.3-.3,0-.6,0-.8ZM11.3,41.3c.2.2.2.5.3.9-.2-.2-.4-.6-.3-.9ZM46.8,69.5c.1.8-.7.6-1.1.6-.3,0-.6.4-.8-.1.7.2,1.5-.2,1.9-.4ZM53.9,60.6c-.1,0,0,.3-.2.3-.3-.3-.6-.5-.8-.9.3,0,.6.1,1,.6ZM48.7,69.3c0,.4-.8.3-1.1.5.1-.5.8-.4,1.1-.5ZM40.4,70.4c.5,0,1.1-.1,1.6-.2-.8.8-1.6.1-2.8.4-.2-.3.9-.2,1.3-.2ZM54.7,61l-.7.5c0-.2.2-1,.7-.5ZM56.2,59.2c.2.4,0,.4-.3.4-.2-.4,0-.4.3-.4ZM55.4,60.3c0,.4-.4.3-.8.3,0-.3,0-.5.3-.6.2.2.3.3.4.3ZM47.4,60.9c-.3,0-.1.4-.3.5-.5-.8-.4.2-.7,0,0-.1,0-.3,0-.5.2,0,.4-.3.5,0,.1-.2.3-.8.6,0ZM41,15.7c-.4.1-.8,0-1.3-.3.4-.2.8-.2,1.2,0,.1,0,0,.1,0,.3ZM6.1,17.1c.1-.2.3-.4.4-.6.2.2,0,1-.4.6ZM60.8,8.7c.2-.2.6,0,.8,0,.1.1.3.5,0,.7-.2-.5-.5-.4-.8-.8ZM9.2,13.1c.4,0,.6-.4.9-.7.3-.3.5-.9.9-.5-.6.3-1,1.7-1.8,1.2ZM31.6,1.8c-.4-.5.7-.3.9-.6,0,.2.2.1.3.1,0,.7-1.1.2-1.2.5ZM14.9,10c.2-.1.4-.3.7,0-.2.2-.4.3-.7,0ZM9.7,14.6c-.4-.3.5-.3.1-.6.3.2.4-.7.8-.2-.3.3-.7.3-.9.8ZM7.7,17c.2-.4.6-.2.9-.4,0,0-.4.9-.9.4ZM10.4,14.8c.2-.2.4-.5.8-.2-.3,0-.4.6-.8.2ZM11.6,14.2c-.3-.4-.4.1-.8-.3.2-.2.6.1.8-.2.2.2.1.4,0,.5ZM44.1,16.2c-.3.5-.5,0-.7,0-.6-.1-1-.3-1.5-.5-.2-.1-.7.4-.6-.3.4.4,1,.1,1.6.3.4.1.8.3,1.3.4ZM38.7,15.3c-.1,0-.5.2-.6,0,.2-.4.4-.2.6,0ZM35,15c0,.2-.3.2-.4.3-.1-.6.3-.2.4-.3ZM38,15.1c0,.6-.7.2-.8,0,.2-.3.6,0,.8,0ZM48.5,17.9c-.4.2-.4,0-.6-.2.2-.3.4.2.6.2ZM53,20.6c-.4.3-.3,0-.4-.2-.2-.2-.5-.3-.8-.5-.3-.2-.6-.3-.8-.5.6-.6.5,0,.6.1.4.3.8.5,1.3,1.1ZM44.9,16.5c-.3.5-.8,0-.6-.3.1.3.4,0,.6.3ZM47.9,17.5c-.2.4-.4.2-.4,0,.2-.3.3,0,.4,0ZM2.2,25.7c-.3-.3.3-.8.3-1.2.3.3-.3.8-.3,1.2ZM24.2,70.3c-.2.2-.5,0-.7.2,0,.1,0,.3,0,.4-.4.5,0-.4-.3-.3.3-.2.9-.6,1-.3ZM26.3,71.4c-.3.7-.5,0-.8-.1.2-.3.5.1.8.1ZM22.5,71.9c-.3-.1-.6-.3-.4-.7,0,.4.7.2.4.7ZM24.9,72.4c-.3.3-.6-.2-.6-.4-.2,0-.4.2-.5-.2.5-.3.9.4,1.1.6ZM23.1,70.8c-.2.3-.3-.1-.5,0,0,0-.2.2-.2.2-.2,0,0-.3-.2-.3,0,0-.5.5-.7.1.1-.5.3-.1.5,0,.2-.5.5-.5.2-.7.3-.4.1.2.2.3.1,0,.1-.2.2-.2.2,0,.2.5.6.5,0,.2,0,.3,0,.3ZM18.1,68.2c-.4-.3-.8.1-1.2-.4.2-.2,0-.3,0-.4.6-.4,1.1,0,1.1.5.2-.3.1-.5.4-.6-.4-.1-1.4-.8-.9-1.6.3.3.2.7.5.9,0,.1.5-.2.3-.3.8,0,1.3,1.1,1.9,1.1-.4.4-.8,0-1,0-.2.3,0,.7.2.5.1.5-.5,0-.7,0,0-.3.3-.4.5-.6-.4-.1-.4-.4-.6-.6-.4.5,0,.5,0,.6,0,0-.3.1-.2.2,0,.1.3.2,0,.6,0,0-.2.1-.2.2ZM22.1,73c-.4-.1-1,.2-1.4.2-.3,0,0-.3-.4-.2-.7.2-1.7-.1-2.8-.6,0-.2-.2-.4-.1-.6.3-.6.7,0,.8-.8.4,0,.4.3.8.3.3-.6-.3-.7-.7-1,.1-.2.3-.2.4-.5.1.8,1,.7,1.6,1.1-.1.3-.3.2-.4.1-.3,0-.5.3-.7.5.1.6.4,0,.6,0,.7.4,1.2,1.2,2,1,0,.2,0,.4.3.5ZM20.2,72.3c0-.2-.1-.3-.1-.4-.3.5.2.6.5.8.7.3,0-.3-.3-.3ZM18.7,69c.1-.1.2,0,.3-.2.2-.3-.3-.3-.4-.5,0,.1,0,.2,0,.2-.2.4-.6.4-.1.6-.4.2-.4,0-.6-.2,0,0,.3,0,.3,0,.1-.1-.5-.3-.6-.4.1-.3.3-.2.4,0,.6-.4,1.1-.4,1.7,0-.1,0-.2.2-.3.3.3,0,.5-.6.8-.2-.2.3-.3.6,0,.7-.5.8-.8.2-1.3.1.2-.4.3-.2.3-.5-.2,0-.3.4-.5,0ZM26.9,70.5c0,.2-.3,0-.4.2-.2-.1-.5-.2-.7-.3-.3-.2-.7-.3-.6-.7.2,0,0,.3.4.3l.2-.4c0-.6-.5-.3-.9-.5.1-.6.4-.1.5-.1.2,0,.4-.1.5-.1.5,0,.9.4,1.3.3.1.4-.2.2-.3.7.1-.6-.6-.8-1-.7,0,.4,0,.8.3.9.2-.4.1-.5-.1-.5.5-.3.5.8.8,1ZM16.6,67.6c-.7.3-.2-.6-.8-.8.2.4-.2.6-.5.4.5-.6-.2-.4,0-1,.1,0,.6-.1.3-.4.4-.4.5.2.7.4-.3.2-.5-.2-.8.4,0,0,.2-.1.3-.2l.6.4c.1,0,.3-.7.6-.3-.1.5-1,.7-.3,1.1ZM29.3,72.7c.3.1.1.5.6.3,0,.6-.7,0-.6-.3ZM64.5,40.6c-.3-.2,0-.7,0-1,.3.2,0,.7,0,1ZM29.5,72.4c-.2.2-.5.2-.7.6-.3-.1-.8-.2-.7-.7.1.4.6.3.9.2,0-.1,0-.2-.2-.2.2-.3.5-.3.6,0ZM72.3,40c.3,0,.3.2.3.4.4,0,.3-.1.6,0,.2.4.2.8.2,1.2,0,.7.2,1.4,0,2.1,0,.2-.2.3-.2.3-.2,1,0,2.1-.2,3.2,0,.2-.3.4-.3.6,0,.1.2.4.2.5,0,.2-.3.3-.3.5-.2.7-.3,1.6-.7,2.3-.4-.2-.4,0-.8-.2,0,.5.3,0,.7.3-.2.8-.4,1.1-.2,1.5.2.4-.3.2-.3.3-.1.2.2.6-.3.7,1,.3.1.4.3.7.2-.1.6,0,.9,0-.1-.3-.5-.2-.7-.6,0-.3.4-.2.5-.6l.6.3c.2-.3-.7-.4-.6-.9.3,0,.2.2.5.3.3-.3-.3-.7.2-.9-.2-.4-.4-.8-.1-1.3.2.2.2.5.2.8.2,0,.4-.2.6-.2,0-.2-.3,0-.3,0-.2-.1,0-.2,0-.4,0-.2-.7-.4,0-.6.4,0,0,.3.2.4,0,.1.5.2.5.4.7-.2.4-.5.7-.9-.7-.2-.3.4-.6.4-.7-.1-.3-.5-.6-.7.3-.3.3,0,.8.2.3,0,.8,0,.9-.5.5.2.8.7.2.7,0,.3.4-.2.8.1.3.3-.2.5-.3.7,0,.1,0,.3,0,.5-.2.5-.7.9-.9,1.5,0,.2,0,.4,0,.5-.4.7-1,1.5-1.3,2.3-.1.3-.4.5-.6.7-.6.8-1.2,1.5-1.8,2.3-.3.4-.6.7-.9,1.1-.3.3-.7.6-1.1.9-.1.1-.4,0-.5.2-.4.2-.5.6-.7.9-.2.3-.5.2-.6.7-.2.3-.5,0-.7,0-.1.6-.9.7-1.1,1.4-.1.2-.4-.4-.2-.5-.7,0-.5.8-.3.9-.4.2-.7.5-1.2.1.1.9-1.4.5-1.2,1.4,0,.2-.4,0-.4,0,0,0,0,.3-.1.3-.4.2-1.3.4-1.8.8-.1,0-.4.3-.2.6-.1,0-.2-.2-.4-.3-.4.5-.7.7-1.2.8,0,0,0,.2,0,.3-.5,0-.4.4-.9.2-.2,0,0,.3-.1.4-.3,0-.8.1-1.2.3-.2.1-.6.5-.7.6-.2.2-.2.5-.4.6-.6.4-1.4.7-2,.9-.6.2-.9,1-1.5.7-.1.1-.1.3-.3.4-.2,0-.2-.1-.4,0-.2.1-.4.5-.7.6-.6.2-1.2.1-1.8.4-.1,0-.1.2-.3.2-.2,0-.4,0-.6,0-.1,0-.2.3-.3.4,0,0-.2,0-.3,0-.2,0-.2.2-.4.2-.8.2-1.7.2-2.4.5-.2,0-.2-.2-.3-.1-.4.1-.8.7-1.4.3-.4.5-1,.2-1.8.3,0-.3.3-.1.3-.5-.3,0-.3.2-.4.5-.2-.3-.7,0-1.1-.1-.2,0,0,.4-.3.5-1.1.2-2.1-.1-3,0-.2,0-.4.2-.7.3-.7,0-1.3-.3-2-.3-.2,0-.5.1-.7,0-.2,0-.3-.3-.5-.4-.2,0-.3.1-.5,0-.8-.2-1.7-.5-2.4-.8,0-.5.4,0,.8,0,.2,0,.8-.6.7.1.4.2.3-.5.7-.3,0,.3,0,.4.1.5,0-.3.5-.6.6,0,.2-.6-.4-.3-.2-.8.7,0,1,.1,1.5,0,.2-.6-.4-.3-.2-1,.7.4,1.2-.5,1.7.3.2,0,.2-.2.1-.5.2-.2.3.4.4,0,.2,0-.1.4-.1.6.7-.3,1.2-.4,1.9-.2,0-.2-.1-.1-.2-.2.4,0,1.3-.4,1.8,0,.4,0,.2-.6.6-.5.1.2.4.3.6.3.2,0,.2-.1.2-.3.2,0,.6.3.6-.2-.1-.3-.6,0-.8-.1,0-.4,0-.7-.3-.6,0,0,0,.2-.2.2,0,.2.2.2.2.5-1.2-.1-2.1,0-2.9,0-.8,0-1.7,0-2.8-.3,0-.2,0-.2,0-.5-.6,0-1.1,0-1.6-.2-.1,0-.1.3-.2.3-.2-.1-.5-.3-.3-.8-.3.1-.3,0-.3.6,0-.1,0-.4-.2-.4.1-.5.5-.5.7-.8.3.3.3.3.8.3,0,.6-.3,0-.3.4.1.4.7.2.5-.4.3.2.6-.2.7.1,0,.3-.2.3-.3.3,0,.4.6.1.6-.3.5.2,1,.3,1.6.1.3.1.4.4.6.5.1,0,0-.3.2-.3.9.2,2-.2,2.7.2.1.5-.3.2-.5.3.4.5.7-.2.8-.5.6.2,1.1.2,1.6.1.5,0,1-.2,1.6-.3.1.3.3,0,.2.4.3.1.2-.3.3-.4.8.2,1.6,0,2.3-.3.3-.1.7-.3,1.1-.4.3,0,.5,0,.8,0,.1,0,.3-.3.4-.3.1,0,.3.2.5.2.1,0,.8-.5,1-.7,0,0,0-.3,0-.4.3.1.4,0,.7,0,.3-.1.5.2.5-.4.3-.1.5.2.7,0,0-.2-.2,0-.3,0-.2-.6.3-.3.5-.4.5-.2,1-.5,1.6-.8.5-.3,1.1-.6,1.8-.9.4-.2,1.1-.6,1.6-1,.1-.1.3,0,.4,0,.3-.3.4-.9,1-.5-.1-.3.5-1,.8-.9,0,0,0,.3-.1.3.1.2.6,0,.2-.3.3.1.6,0,.8-.2,0-.1-.2,0-.2,0,0-.5.9-.8,1.2-1.2.5,0,1.1,0,1.5-.5-.3-.2-.4.3-.7-.2.5-.3.2-.7.7-1.1.3-.2.7-.3,1-.6.1.1,0,.2,0,.3.5.1.4-.5,0-.6.1-.2.3-.2.5,0,0-.7.9-1.2,1.2-1.9.2.5.8,0,.6-.3-.5-.3,0,.6-.5.1.3-.4.6-.8.9-1.1.3-.4.5-.7.7-1,.2.2.3,0,.4.2,0-.2-.2-.3-.2-.5.2-.3.5-.7.7-1,.3-.6.8-1.2,1.2-1.9,0-.2,0-.4.1-.6.4-.7,1.1-2,1.3-3,0-.3,0-.6,0-.9.1-.6.4-1.1.5-1.7.1-.8.2-1.5.3-2.2,0-.2.2-.2.2-.3,0-.2-.1-.3,0-.4,0-.2.5-.5,0-.8.3-1.1.2-1.3.3-2.4.3,0,.3.1.6.1v.8c-.1.2.5.1.7.2.1-.2-.3-.2-.3-.3,0-.2.3,0,.3-.2.1-.2-.1-.3-.1-.3,0-.2.6-.2.3-.5ZM38.6,71.7c-.2,0-.4-.7-.6-.1.2,0,.4.7.6.1ZM34.4,73.8c-.2-.2-.5-.2-.7-.4-.1.6.4,1,.5.8-.3-.1.2-.2.1-.5ZM35.3,75.6c0-.4-.7-.7-.8-.4.2.2.4.4.8.4ZM38.9,75.2c-.2,0-.9-.4-.9.2.4-.3.6.2.9-.2ZM41.2,71.7c-.2-.3-.8.3-.6.4,0-.3.6,0,.6-.4ZM48.4,73c-.3,0-.6,0-.7.3.2,0,.8.2.7-.3ZM51.2,71.7c-.2-.3-.2.3-.2.4.3,0,.6-.2.9-.3-.1-.6-.5,0-.7,0ZM61,64.3c-.3.1-.2.4,0,.7.2-.2.4-.4,0-.7ZM60.5,62.9c-.2.4-1.3.3-.9.9.4,0,.2,0,.1-.3,0-.6,1.4.2.7-.6ZM61.8,61.2c-.3,0-.4.4,0,.7.4-.2.1-.5,0-.7ZM62.2,61.3c.2-.2.5,0,.6-.2-.3-.4-.8,0-.6.2ZM67.8,60.3l-.3.3c.5.6.8-.1.3-.3ZM68.6,59c-.2.6-.8-.2-1,.3.4.3.6,0,1,0,.5.2-.1.3.4.5.2-.3-.1-.6-.3-.9ZM71.8,56.9c0-.1.2-.2.2-.4-.5-.4-.8.2-.2.4ZM70.8,55.6c-.2.3-.2.5,0,.7,0,0,.2,0,.4,0,.1-.2,0-.5-.3-.7ZM74.3,50.9c.4-.1.9,0,1.1-.3-.5-.4-.6.1-.7.2,0,0-.2-.1-.3-.1,0,0-.3.2-.2.2-.2,0-.2.3-.3.4.4.3.3-.1.5-.3ZM74.5,51.8l-.2.5c.4.3.7-.5.2-.5ZM73.1,52.3c.8.2.3-.5.9-.5-.3-.1,0-.4-.3-.5-.3.3-.2.6-.6,1ZM74,53.7c.3-.2,0-.4,0-.6,0-.1.7-.4,0-.6-.3.1-.6,1,0,1.2ZM72.9,55.2c0-.3.1-.6-.3-.8,0,.3-.1.6.3.8ZM72,43.5c-.3,0-.7,0-.7.2.3.2.4.3.9.3.2-.2-.3-.3-.2-.4ZM71.3,42c0,.1-.2.1-.3.1,0,0,0-.3-.1-.1.3.3-.2.3-.1.7.7.1.5-.3.4-.5.2,0,.4,0,.2-.2ZM28.4,70.8c-.5-.1-.6.2-1.1.3-.2-.3-.3-.7-.4-1.1.4-.5.8-.5,1.3-.6-.2.3-.5.5-.8.4-.1.4,0,.5.2.6.3-.7,1.6-1.3,1.4,0-.2,0-.2-.4-.5-.1.2.8,1.2,0,1.3.7v-.6c-.2-.2-.3,0-.6,0,0-.9,1-.5,1,0,.3-.1.5,0,.7.1-.1.3-.4.2-.5.5-.2,0,0-.5-.2-.5-.1,0-.1.4-.3.4,0,.2.2.2.3.2-.2.6-.7.6-1,.5-.3,0-.6-.7-.9-.7ZM28,72.8h-.3c.3-.4,0-.4.1-.9.3,0,.2.5.2.9ZM29.8,72.3c.4.2.3,0,.6.3,0,.2-.8.2-.6-.3Z"/>
          </g>
          <g class="cls-2">
            <path class="cls-1" d="M58,5.6c.1-.8.2-1.5.2-2.1,0-.5,0-1,0-1.3,0-.3-.1-.6-.3-.8-.1-.2-.3-.3-.5-.3-.2,0-.3-.1-.4-.2,0-.1,0-.2,0-.4,0-.1.2-.2.5-.3.2,0,.5-.1.9-.1.6,0,1.1.1,1.5.4.4.2.7.5,1,.9.2.3.4.7.4,1.1,0,.4,0,.7-.2,1.1-.2.3-.3.6-.4.8,0,.3-.1.5-.1.7.6,0,1,0,1.4,0,.3,0,.6.1.8.2.2.1.3.3.4.5,0,.2.1.4.2.7,0,.2,0,.4,0,.6,0,.1,0,.3-.2.3,0,0-.3.2-.5.2-.2,0-.5,0-.9,0-.2,0-.5,0-.8.1-.4,0-.8.2-1.4.3-.3.6-.6,1.2-1,1.9-.4.7-.8,1.3-1.2,1.7.3.1.6.2.8.3.2,0,.5.2.7.4.3.2.6.4.9.8.4.3.8.7,1.4,1.3.6.6,1.3,1.1,2,1.6s1.7,1,2.6,1.5c.9.4,1.7.8,2.2,1.1.6.3,1,.5,1.4.7.4.2.6.4.8.6.2.2.4.4.5.6.6.9.9,1.4.8,1.6,0,.2-.4.3-1,.2-1.1,0-2.1-.2-3.1-.4-1-.2-1.9-.5-2.8-1-.9-.5-1.8-1.2-2.7-2.1-.9-.9-1.9-2.1-2.9-3.6-.5-.8-1.1-1.3-1.8-1.6-.7-.3-1.6-.5-2.8-.5s-1.2.2-1.8.5c-.6.3-1.1.7-1.4,1.1-1,1.3-1.8,2.4-2.5,3.2-.6.9-1.2,1.6-1.8,2.2-.5.6-1.1,1.1-1.7,1.6-.6.5-1.3.9-2.1,1.4-.3.2-.6.3-.9.3-.3,0-.5,0-.6-.2-.1-.1-.2-.2-.2-.4,0-.2.1-.3.3-.4.4-.2.8-.5,1.3-.8.5-.4,1-.8,1.5-1.3.5-.5,1.1-1,1.6-1.6.5-.6,1-1.2,1.4-1.9,1-1.6,1.9-2.8,2.6-3.6.8-.8,1.3-1.3,1.6-1.5-.1-.2-.2-.5-.2-.7,0-.2-.1-.4-.1-.7-2,1.5-3.5,1.2-4.5-.8-.2-.4-.3-.7-.3-.9,0-.2,0-.4,0-.5,0,0,0-.2.2-.2,0,0,.2,0,.3,0,.2.1.5.2,1,.1.5,0,1-.1,1.6-.3.5-.1,1-.3,1.5-.5.4-.2.7-.4.7-.6,0-.4,0-.8,0-1.1s-.2-.6-.4-.8c-.4-.3-.8-.9-1-1.7-.2-.4-.2-.6-.1-.7,0,0,.3,0,.6,0,.2,0,.4.1.6.2.2,0,.5,0,.8,0,.3,0,.5,0,.8,0,.3,0,.5.2.7.3.2.1.4.3.5.4.1.1.2.3.3.5,0,.2.2.5.3.8,0,.3.1.7.2,1.1.5,0,.8.1.7.3,0,.2-.5.5-1.2.8-.4.9-.6,1.8-.6,2.4,0,.7,0,1.2.3,1.6.2,0,.5,0,.6,0,.2,0,.3,0,.5,0,.2,0,.3,0,.5,0,.2,0,.5,0,.8.2-.6-.3-.9-.6-.9-.7,0-.2.1-.4.5-.6.1,0,.2-.2.3-.4.1-.2.2-.4.3-.6s.2-.5.2-.7c0-.2.1-.5.2-.7-1.1-.1-1.6-.3-1.5-.6.1-.3.8-.9,2-1.6ZM50,26.3c-.4.9-.8,1.4-1.2,1.7-.5.2-.8.1-1-.4-.4-.7-.5-1.3-.6-2,0-.6,0-1.1.2-1.3.2-.3.3-.5.4-.7,0-.2.1-.5.1-1s.1-.3.3-.4c.2,0,.5,0,.7.2.2.1.4.3.4.4,0,.2,0,.4,0,.6,0,.3,0,.4.2.5.1,0,.4,0,.7-.1.7-.2,1.3-.4,1.7-.5.4-.1.7-.2.9-.2.2,0,.3,0,.3,0,0,0,0,0-.1.2-.6.4-1.1.8-1.6,1.3s-1,1-1.4,1.6ZM54.3,29.3c.1.2.3.3.4.2.2,0,.3,0,.5-.2.2-.2.3-.3.5-.6.2-.2.3-.5.4-.8,0-.2.2-.4.2-.7,0-.2.1-.6.2-1.1,0-.5,0-1.2,0-2.1,0-.9,0-2.1,0-3.5.4-.3.8-.6,1.2-.8.4-.2,1-.3,1.6-.4.3,0,.5-.1.5-.3s-.2-.5-.6-1.1c-.2-.3-.5-.5-.8-.7-.3-.2-.8-.2-1.5-.2-.4-1.5-1.2-2.2-2.5-2.1-.7,0-1.2.1-1.4.2-.2,0-.3.3-.3.6,0,.6.2.9.6,1,.2,0,.3.1.4.3,0,.2,0,.4,0,.7-.5.2-1,.4-1.3.6-.4.1-.7.2-.9.3-.3,0-.5.1-.8.2-.3,0-.5,0-.8,0-.3,0-.5.2-.4.4,0,.2.4.6,1.1,1.2.7.7,1.8,1,3.1,1.1,0,.4,0,.8,0,1.3s0,.8,0,1.2c0,.4,0,.7-.1,1,0,.3,0,.5,0,.6-.3.8-.3,1.5-.2,2,.2.5.5,1.1.9,1.7ZM62.7,24.3c.2.4.2.7.2,1.1s0,.6-.2.9c-.1.2-.3.5-.5.6-.2.2-.4.3-.6.4-.3.1-.5,0-.8,0-.3-.2-.5-.5-.7-1.1-.1-.3-.3-.6-.4-.9-.1-.2-.3-.4-.4-.4-.4-.1-.3-.2,0-.3.1,0,.2-.1.2-.2,0,0,0-.3-.2-.6-.2-.3-.3-.6-.4-.8-.1-.2-.2-.4-.3-.4-.3-.1-.4-.3-.3-.5,0-.2.4-.2,1-.1.7.1,1.4.4,2.1.7s1.1.9,1.4,1.6Z"/>
          </g>
          <path class="cls-4" d="M70.2,51.3c.4.6.5,1,.3,1.3-.2.2-.9.2-2.1,0-.6-.1-1.2-.2-1.7-.2-.5,0-1,0-1.5,0-.5,0-1,0-1.5.1-.5,0-1.1.2-1.8.3,0,1.2,0,2.2,0,3,0,.8-.1,1.6-.2,2.2,0,.7-.2,1.3-.3,1.9-.1.6-.3,1.2-.4,1.9-.2.6-.3.9-.3.9s-.2-.3-.3-.9c0-.6-.2-1.2-.2-1.7,0-.5,0-1-.1-1.6,0-.6,0-1.3,0-2.1,0-.8,0-1.8,0-3.1-.8.2-1.5.5-2.2.8-.7.3-1.5.7-2.3,1.2-.6.3-1.1.5-1.5.4-.4,0-.8-.4-1.3-1-.5-.6-.4-.9.4-.9s1.6-.3,2.7-.9c1.2-.6,2.5-1.5,3.9-2.8-1.4.6-2.3.8-2.9.8-.6,0-1-.3-1.2-.8-.2-.3-.3-.7-.4-1.1-.1-.4-.2-.8-.3-1.2,0-.5-.1-1-.1-1.5,0-.6,0-1.2,0-2-.5,1-1,2-1.5,2.9-.5.9-1.2,1.9-1.9,2.9-.2,1.1-.3,2.2-.4,3.4,0,1.2,0,2.7.2,4.5.1.9,0,1.4-.3,1.5-.3,0-.6-.3-.9-1.1-.1-.4-.2-.7-.3-1.1,0-.3-.2-.7-.2-1.1,0-.4,0-.9,0-1.5s0-1.3,0-2.1c-.3.3-.7.6-1,.9-.4.3-.7.7-1,1.1-.4.4-.7.6-.9.5-.3,0-.6-.4-.9-1.1-.3-.5-.4-.9-.3-1.1,0-.2.3-.5.6-.8.9-.6,1.6-1.2,2.3-1.9.7-.7,1.2-1.5,1.6-2.2,0-.4,0-.7,0-1,0-.3,0-.6,0-1,.1-.5,0-.6-.6-.3-.5.3-.9.6-1.2.8-.3.2-.6.3-.8.4-.2,0-.5,0-.7,0-.2,0-.5-.2-.8-.3-1.6-.8-2.1-1.8-1.6-3.1.2-.3.3-.5.4-.5.1,0,.2.2.2.6,0,.3,0,.5.2.6.1.1.4.2.8,0,.4,0,.9-.3,1.6-.7.7-.4,1.5-.9,2.6-1.6.3-.2.5-.3.7-.4.2,0,.4-.1.6-.1s.4,0,.6.1c.2,0,.5.2.7.4.5.3.7.6.8,1,0,.3,0,.6-.4.8-.2.2-.3.4-.5.6-.1.3-.3.7-.4,1.2.2.2.3.5.3.7.6-.9,1.2-1.8,1.8-2.6.5-.9,1.1-1.7,1.6-2.4.2-.3.4-.5.4-.5,0,0,0,.2-.1.6-.1.3-.3.6-.4.9-.1.3-.2.5-.4.8.9-.6,1.8-1.1,2.7-1.6.9-.5,1.8-1,2.8-1.6-.2-1.1-.2-2.2.1-3.3,0-.3.1-.7,0-1.2,0-.4-.1-.7-.2-.8-.2-.2-.3-.3-.3-.4s.1-.1.4-.2c.1,0,.2,0,.3,0,0,0,.2,0,.2.2,0,.1.2.3.3.6.1.2.3.6.4,1,1.1-1.2,2.1-1.9,3.1-2.1,1-.1,1.8.1,2.5.8.4.4.7.8.7,1.1,0,.3-.1.6-.4.8-.5.3-1,.7-1.5,1.2-.4.5-.7.9-.8,1.2-.2.6-.6.9-1.2,1-.3,0-.7.1-1,.3-.4.1-.7.3-.9.4-.5.3-.9.3-1.3.1-1.5.6-2.7,1-3.5,1.4-.8.4-1.4.7-1.7.9-.3.3-.5.5-.5.7,0,.2.1.4.3.7.2-.3.5-.6.9-.9.3-.3.8-.5,1.3-.8.5-.2,1.1-.5,1.9-.8.7-.3,1.6-.5,2.6-.8,1-.3,1.9-.4,2.6-.3.7,0,1.5.3,2.3.7.6.3,1,.8,1.2,1.2.2.5,0,.9-.3,1.3-.2.2-.3.4-.5.8-.2.3-.4.7-.5,1-.3.7-.5,1.3-.7,1.7-.2.4-.5.8-.7,1.2-.4.6-.8.7-1.4.5-.3,0-.6,0-.9,0-.3.1-.9.4-1.5.8v1.3c.8-.2,1.5-.3,2.3-.4.7-.1,1.5-.2,2.2-.2-.5-.5-.7-.8-.7-.8,0,0,.2,0,.5,0,.4.2.8.3,1.1.4.3,0,.5.2.8.2.4,0,.8.1,1.2.3.4.1.7.3.9.6ZM53.4,37.2c0,.2,0,.4,0,.6s0,.3-.2.4c-.1,0-.3.2-.6.3-.3,0-.7.2-1.2.3-.3,0-.7.2-1.1.3-.4.1-.8.2-1.2.4-.4.1-.7.3-1.1.4s-.6.3-.8.4c-.3.2-.5.3-.6.2,0,0,0-.2.2-.4.5-.4.9-.8,1.4-1.1.4-.4.9-.7,1.3-1.1.2-.1.3-.3.2-.5,0-.2-.5-.6-1.1-1.3-.4-.3-.5-.6-.5-.6,0,0,.3,0,.7,0,.4,0,.9,0,1.5,0,.8,0,1.5,0,2,.3.5.3.9.8,1.1,1.6ZM59.8,34.7c0,.4-.1.9-.2,1.4,0,.5-.1,1-.1,1.5,0,.4,0,.8,0,1.2,0,.4-.1.8-.2,1.1-.1.6-.4.7-.8.4-.3-.3-.5-.6-.6-.9,0-.3,0-.7,0-1.2.1-.5.2-.8.2-1s0-.4-.1-.6c0-.2-.2-.2-.3-.2-.1,0-.3.2-.3.4-.2.6-.4,1.1-.5,1.6-.2.5-.3,1.1-.5,1.7-.2.6-.5.8-1,.5-.4-.2-.6-.6-.7-1,0-.5,0-.9.2-1.4.3-.5.5-1,.6-1.4.1-.4.2-.7.1-.9-.1-.3,0-.5,0-.5.1,0,.4.3.8.9.5-.3,1-.5,1.4-.4.5,0,.9.4,1.3.9,0-.4.2-.8.3-1.1.1-.3.3-.6.6-.9ZM60.2,44.8c0-.5,0-1-.4-1.3-.6.2-1,.3-1.4.3-.4,0-.6,0-.9,0-.5-.2-.9,0-1.1.3-.3.4-.3,1,0,1.8.2,0,.4,0,.6,0,.2,0,.4,0,.7-.2.3,0,.6-.2,1-.4.4-.2,1-.4,1.6-.6ZM59.5,47.3c-.6,0-1.2-.1-1.7-.3-.5-.2-1-.3-1.5-.5,0,.3,0,.5,0,.7s0,.4,0,.6c0,.2,0,.4.1.6,0,.2.1.4.2.7.6-.3,1.1-.5,1.5-.7.5-.2.9-.6,1.3-1.1ZM60,51.8c0-.2-.2-.3-.3-.3-.2,0-.5.2-.9.6.2,0,.4,0,.6-.1.2,0,.4-.1.6-.1ZM64.9,43c0-.5-.2-.8-.8-.8s-.8,0-1.4.2c-.5.2-1,.3-1.6.6.4.3.7.7,1,1.2.2,0,.4,0,.6,0,.2,0,.5,0,.7,0,.2,0,.5,0,.7,0,.2,0,.4,0,.5.1,0-.2,0-.4,0-.6,0-.2,0-.4,0-.7ZM62,47.5c.6,0,1-.1,1.2-.2.2,0,.4-.3.6-.6.1-.2.3-.5.4-.7.1-.2.2-.4.3-.7-.2.1-.5.2-.8.4-.3.2-.6.4-.8.6-.3.2-.5.4-.6.6-.2.2-.2.4-.2.6ZM64.9,35.8c.2-.3.3-.5,0-.6-.2-.1-.4,0-.7.2-.3.3-.6.5-.8.7-.2.2-.4.4-.5.6-.1.2-.2.4-.3.6,0,.2-.1.5-.2.8.2,0,.3-.2.5-.3.2-.1.3-.2.5-.4.2-.2.4-.4.6-.6.2-.2.5-.6.8-1Z"/>
          <path class="cls-1" d="M24.1,43.5c-.5,0-.9,0-1.3.1-.4,0-.8.1-1.2.2-.4,0-.9.2-1.3.4-.4.1-1,.3-1.5.5-.7.2-1,.3-1,.2,0,0,.5-.4,1.6-1,.8-.4,1.1-.7,1.1-.8,0-.1-.3-.1-1-.1-2.4.1-4.3.4-5.7.7-1.4.3-2.4.7-2.8,1.2-.4.4-.8.6-1.2.7-.4.1-.8.1-1.1,0-.7-.4-1.2-.7-1.7-1-.4-.3-.7-.7-.9-1.3-.2-.5-.2-.8,0-1,.1-.1.4-.1.7.1,0,0,.2.1.4.1.1,0,.4,0,.7,0,2.5-.4,4.9-.8,7.3-1.1,2.4-.3,4.7-.6,6.9-.9.6,0,1.1-.1,1.5-.1.4,0,.7,0,.9,0,.2,0,.4,0,.6.1.2,0,.4.1.6.2.5.2.9.4,1.2.7.3.3.4.6.3.8,0,.3-.3.5-.8.7-.4.2-1.1.4-2,.4Z"/>
          <path class="cls-1" d="M13.9,63.3c0,.2-.1.4-.2.6,0,.2-.2.4-.3.6-.3.4-.4.6-.5.8,0,.2-.1.5-.2.8,0,.3-.1.6-.3,1-.1.3-.3.6-.5.9-.2.3-.4.5-.7.6-.3.2-.5.2-.7.2-.2,0-.4-.1-.6-.4-.2-.2-.4-.5-.5-.8-.1-.3-.2-.6-.2-1s.1-.6.3-.7c.6-.5,1-1.1,1.2-1.8.2-.7.3-1.3.4-2,0-.3,0-.6,0-.9,0-.3-.1-.5-.3-.6-.1-.1-.2-.2-.4-.2-.1,0-.3.1-.4.4-.1.2-.3.5-.4.8-.1.3-.3.6-.4,1-.1.3-.2.6-.3.9,0,.3-.2.5-.2.7,0,.4,0,.5.2.3.1-.3.2-.6.3-.9,0-.3.2-.5.3-.7,0-.2.2-.3.2-.3s0,0,0,.3c0,.2,0,.4-.2.7,0,.3-.2.5-.2.6,0,.1,0,.3-.1.4,0,.2,0,.5,0,.8,0,.3,0,.8,0,1.3,0,.5,0,1.2,0,2,0,.3,0,.6-.2.8-.1.2-.4.3-.8.4-.2,0-.4,0-.6-.3-.2-.2-.4-.5-.6-.9-.3-.5-.5-.9-.7-1.3-.2-.4-.3-.7-.3-1,0-.4-.1-.6-.2-.8,0-.2-.2-.3-.4-.5-.3-.4-.6-.7-.8-1.1-.1-.2-.1-.3-.1-.3,0,0,.2,0,.4,0,.4.1.7.3,1,.3.3,0,.6.2.9.2.2-.2.4-.3.6-.5.2-.2.4-.4.6-.6.2-.2.4-.6.7-1,.2-.4.5-.9.8-1.5.3-.5.7-.9,1.2-.9.4,0,.9,0,1.3.3.4.2.8.5,1.1.9.3.4.5.7.6,1.1,0,.4,0,.7-.3.9-.1,0-.2.2-.3.4-.1.2-.2.4-.3.6-.1.2-.2.4-.3.6,0,.2,0,.3,0,.4s0,.1,0,.2c0,0,.1,0,.1-.1.1-.3.2-.5.3-.7.1-.2.2-.4.4-.6.3-.4.5-.6.5-.7s0-.2,0-.3c0-.1.1-.2.2-.1.1,0,.1.2,0,.4ZM23.6,65.6c-.4.3-.9.6-1.4.9-.5.4-1.1.8-1.7,1.4v1.4c0,.4,0,.9,0,1.3,0,.7,0,1.4,0,2.1,0,.7,0,1.3.1,1.7,0,.4,0,.8,0,1.3,0,.5,0,.9-.2,1.3,0,.3-.1.4-.3.4-.1,0-.2,0-.4-.2-.3-.3-.6-.6-.9-.8s-.8-.5-1.4-.8c-.2-.1-.5-.4-.9-.7-.3-.3-.7-.7-1-1.1-.3.3-.6.7-.9,1.2-.4.5-.7,1-.9,1.5-.1.3-.4.4-.6.4-.3,0-.5-.1-.6-.3-.3-.6-.6-1-.8-1.4-.2-.4-.3-.7-.4-.9,0-.2,0-.4,0-.5,0-.1.1-.2.2-.3,0,0,.1,0,.2-.2,0,0,.1-.3.2-.5.2-.5.3-.9.4-1,0,0,.1,0,.2.2,0,.5.1.8.2.9,0,0,.3,0,.6,0,1.1-.4,2.1-.8,3-1.2.9-.4,1.8-.8,2.6-1.2,0-.4,0-.8,0-1.2-.2.1-.4.3-.6.6-.2.2-.4.4-.5.6,0,.1-.1.2-.2.3,0,0-.2,0-.3.1-.1,0-.3,0-.5,0s-.4-.1-.7-.2c-.5-.2-.9-.5-1.3-.9-.3-.4-.5-.7-.6-1,0-.3,0-.4,0-.6,0-.1.2,0,.4,0,.1.1.3.1.4.1.2,0,.4-.2.8-.5.5-.4.9-.7,1.4-1,.5-.3,1-.6,1.5-.9,0-.4,0-.8,0-1.2,0-.4,0-.7-.1-.8-.1-.4-.2-.7-.2-1,0-.3,0-.6-.1-1-.5-.4-.9-.8-1.2-1-.3-.2-.6-.4-.8-.5-.2-.1-.4-.2-.6-.2s-.3,0-.4,0c-.5.3-.5.2-.2-.4,0,0,.1-.1.2-.2,0,0,.3-.1.5-.2.3,0,.6-.1,1.1-.2.4,0,1-.2,1.8-.3.1-.5.2-1,.2-1.5,0-.5,0-1.1,0-1.6,0-.4,0-.7,0-.8,0-.1.2-.3.5-.4.1,0,.3,0,.4,0,.1,0,.2.2.3.3,0,.1.2.3.2.4s0,.3,0,.4c0,.5,0,1,.4,1.3.1.1.2.8.3,1.8.7.2,1.1.6,1.2,1.4,0,.3,0,.5-.2.6-.2.1-.5.2-1.1.4,0,.2-.1.5-.2.9,0,.4-.1.7-.2,1.1,0,.4,0,.7-.1,1.1,0,.3,0,.6,0,.7.4-.2.7-.4.9-.5.2-.1.5-.2.7-.3,0-.3-.1-1-.2-2.1,0-.4,0-.5,0-.5,0,0,.2.4.3,1,.1.5.2.8.4,1,.1.2.3.3.6.4.1,0,.2.1.3.3,0,.2.1.3.1.5,0,.2,0,.4,0,.5,0,.2,0,.3-.2.3ZM19.2,70.9c-.5,0-1,.2-1.5.7-.6.5-1.1,1.1-1.6,1.9.2.1.4.2.7.3.3.1.7.2,1.2.3.5,0,.8,0,1-.1.2-.2.2-.5.2-.9,0-.3,0-.6,0-1,0-.4,0-.8,0-1.2ZM27.3,73.8c-.3.4-.5.7-.6.7-.2,0-.4,0-.6-.2-.6-.4-1.2-.8-1.9-1.1-.7-.3-1.5-.6-2.4-.8-.3,0-.4-.2-.5-.3,0,0,0-.1.4-.1.3,0,.5,0,.8,0,.3,0,.5,0,.8,0,.3,0,.5,0,.7-.1s.3-.1.4-.2c.3-.2.5-.4.5-.5,0-.1,0-.4-.2-.7-.1-.2-.2-.4-.3-.5,0-.1-.2-.2-.3-.2-.2,0-.3-.1-.2-.2,0,0,.3-.1.7-.1s.9.2,1.3.5c.4.3.8.7,1.1,1.2.3.5.5.9.6,1.4,0,.5,0,1-.2,1.4Z"/>
        </g>
      </g>
    </g>
  </g>
</svg>