<?xml version="1.0" encoding="UTF-8"?>
<svg id="Layer_2" data-name="Layer 2" xmlns="http://www.w3.org/2000/svg" viewBox="0 0 246 56.5">
  <defs>
    <style>
      .cls-1 {
        fill: #1f2456;
      }
    </style>
  </defs>
  <g id="Layer_1-2" data-name="Layer 1">
    <g>
      <path class="cls-1" d="M234.8,7.9h2.6v2.3c.6-1.7,1.7-2.6,3.3-2.6s1.6.2,2.2.7.9,1,1,1.7c.1.6.2,1.7.2,3.1v9.2h-2.8v-9c0-1.2,0-2.1-.3-2.5s-.6-.7-1.2-.7-1.1.3-1.5.9-.5,1.7-.5,3.4v8h-2.8V7.9ZM228.7,15.2c-.3,0-.6,0-.8,0-2.2,0-3.4,1-3.4,3s.6,2.2,1.7,2.2,1.2-.4,1.7-1.2c.5-.8.7-1.9.7-3.2v-.7ZM224.6,12l-2.6-.4c.2-1.3.7-2.3,1.6-3,.9-.7,2-1.1,3.4-1.1s2.2.3,2.9.8c.7.5,1.2,1.1,1.4,1.8.2.7.3,1.8.3,3.2v4.9c0,2,0,3.3.2,4h-2.7c-.1-.5-.2-1.3-.2-2.4-.8,1.8-2,2.7-3.7,2.7s-2-.4-2.7-1.1-1-1.8-1-3,.5-2.8,1.5-3.7,2.7-1.4,5.1-1.4.3,0,.6,0v-.6c0-1-.1-1.7-.4-2.2-.3-.5-.8-.7-1.5-.7-1.2,0-1.9.7-2.2,2.1ZM216.1,7.9h2.8v14.4h-2.8V7.9ZM218.9,5.9h-2.8v-3.2h2.8v3.2ZM210.1,13.9c0-1.5-.3-2.5-.8-3.1s-1.1-.9-1.6-.9c-1.5,0-2.3,1.7-2.3,5s.8,5.4,2.3,5.4,1.1-.3,1.6-.9.7-1.6.7-3.1v-2.5ZM210.1,2.9h2.8v19.4h-2.6v-2.1c-.7,1.6-1.8,2.5-3.4,2.5s-2.7-.7-3.4-2c-.8-1.4-1.1-3.2-1.1-5.4s.4-4.2,1.3-5.6,2-2,3.3-2,2.5.6,3.1,1.9V2.9ZM197,15.2c-.3,0-.6,0-.8,0-2.2,0-3.4,1-3.4,3s.6,2.2,1.7,2.2,1.2-.4,1.7-1.2.7-1.9.7-3.2v-.7ZM192.9,12l-2.6-.4c.2-1.3.7-2.3,1.6-3,.9-.7,2-1.1,3.4-1.1s2.2.3,2.9.8,1.2,1.1,1.4,1.8c.2.7.3,1.8.3,3.2v4.9c0,2,0,3.3.2,4h-2.7c-.1-.5-.2-1.3-.2-2.4-.8,1.8-2,2.7-3.7,2.7s-2-.4-2.7-1.1-1-1.8-1-3,.5-2.8,1.5-3.7,2.7-1.4,5.1-1.4.3,0,.6,0v-.6c0-1-.1-1.7-.4-2.2-.3-.5-.8-.7-1.5-.7-1.2,0-1.9.7-2.2,2.1ZM178.1,7.9h2.6v2.3c.6-1.7,1.7-2.6,3.3-2.6s1.6.2,2.2.7.9,1,1,1.7c.1.6.2,1.7.2,3.1v9.2h-2.8v-9c0-1.2,0-2.1-.3-2.5s-.6-.7-1.2-.7-1.1.3-1.5.9c-.4.6-.5,1.7-.5,3.4v8h-2.8V7.9ZM172,15.2c-.3,0-.6,0-.8,0-2.2,0-3.4,1-3.4,3s.6,2.2,1.7,2.2,1.2-.4,1.7-1.2.7-1.9.7-3.2v-.7ZM167.9,12l-2.6-.4c.2-1.3.7-2.3,1.6-3,.9-.7,2-1.1,3.4-1.1s2.2.3,2.9.8,1.2,1.1,1.4,1.8c.2.7.3,1.8.3,3.2v4.9c0,2,0,3.3.2,4h-2.7c-.1-.5-.2-1.3-.2-2.4-.8,1.8-2,2.7-3.7,2.7s-2-.4-2.7-1.1-1-1.8-1-3,.5-2.8,1.5-3.7c1-.9,2.7-1.4,5.1-1.4s.3,0,.6,0v-.6c0-1-.1-1.7-.4-2.2-.3-.5-.8-.7-1.5-.7-1.2,0-1.9.7-2.2,2.1ZM160.3,15.8l2.8.4c-.6,4.3-2.6,6.4-5.9,6.4s-3.9-.9-4.9-2.7c-1.1-1.8-1.6-4.2-1.6-7.2s.6-5.7,1.7-7.5c1.1-1.7,2.8-2.6,4.9-2.6,3.3,0,5.3,2.2,5.9,6.7l-2.8.4c-.3-3-1.3-4.5-3.1-4.5s-3.5,2.6-3.5,7.7,1.2,7.1,3.5,7.1,1.6-.4,2.1-1.1c.5-.7.8-1.8,1-3.1ZM139.9,2.9h2.8v19.4h-2.8V2.9ZM133.9,15.2c-.3,0-.6,0-.8,0-2.2,0-3.4,1-3.4,3s.6,2.2,1.7,2.2,1.2-.4,1.7-1.2.7-1.9.7-3.2v-.7ZM129.8,12l-2.6-.4c.2-1.3.7-2.3,1.6-3,.9-.7,2-1.1,3.4-1.1s2.2.3,2.9.8,1.2,1.1,1.4,1.8c.2.7.3,1.8.3,3.2v4.9c0,2,0,3.3.2,4h-2.7c-.1-.5-.2-1.3-.2-2.4-.8,1.8-2,2.7-3.7,2.7s-2-.4-2.7-1.1c-.7-.7-1-1.8-1-3s.5-2.8,1.5-3.7c1-.9,2.7-1.4,5.1-1.4s.3,0,.6,0v-.6c0-1-.1-1.7-.4-2.2-.3-.5-.8-.7-1.5-.7-1.2,0-1.9.7-2.2,2.1ZM115,7.9h2.6v2.3c.6-1.7,1.7-2.6,3.3-2.6s1.6.2,2.2.7c.5.5.9,1,1,1.7.1.6.2,1.7.2,3.1v9.2h-2.8v-9c0-1.2,0-2.1-.3-2.5s-.6-.7-1.2-.7-1.1.3-1.5.9c-.4.6-.5,1.7-.5,3.4v8h-2.8V7.9ZM109.3,15.1c0-2-.2-3.4-.6-4.1-.4-.7-1-1.1-1.7-1.1-1.5,0-2.3,1.7-2.3,5.2s.2,3.1.5,3.9c.4.9.9,1.3,1.7,1.3s1.4-.4,1.7-1.3.5-2.2.5-3.9ZM112.3,14.9c0,5.1-1.8,7.6-5.3,7.6s-2.9-.6-3.8-1.8c-.9-1.2-1.4-3.1-1.4-5.6,0-5,1.8-7.5,5.3-7.5s2.9.6,3.8,1.8c.9,1.2,1.4,3.1,1.4,5.5ZM96.2,7.9h2.8v14.4h-2.8V7.9ZM99.1,5.9h-2.8v-3.2h2.8v3.2ZM89.3,4.2l2.6-.3v3.9h2.6v2.4h-2.6v6.3c0,1.1,0,1.8,0,2.2,0,.4.2.7.5.9s.7.3,1.3.3.7,0,1.1,0v2.4c-.8.2-1.5.3-2.1.3-1.1,0-1.9-.2-2.4-.6-.6-.4-.9-1-1.1-1.7s-.2-1.9-.2-3.4v-6.5h-1.7v-2.4h1.8v-3.7ZM82.9,15.2c-.3,0-.6,0-.8,0-2.2,0-3.4,1-3.4,3s.6,2.2,1.7,2.2,1.2-.4,1.7-1.2.7-1.9.7-3.2v-.7ZM78.7,12l-2.6-.4c.2-1.3.7-2.3,1.6-3,.9-.7,2-1.1,3.4-1.1s2.2.3,2.9.8,1.2,1.1,1.4,1.8c.2.7.3,1.8.3,3.2v4.9c0,2,0,3.3.2,4h-2.7c-.1-.5-.2-1.3-.2-2.4-.8,1.8-2,2.7-3.7,2.7s-2-.4-2.7-1.1-1-1.8-1-3,.5-2.8,1.5-3.7c1-.9,2.7-1.4,5.1-1.4s.3,0,.6,0v-.6c0-1-.1-1.7-.4-2.2-.3-.5-.8-.7-1.5-.7-1.2,0-1.9.7-2.2,2.1ZM61.1,2.9h3.6l5.8,14V2.9h2.6v19.4h-3l-6.4-15.5v15.5h-2.6V2.9Z"/>
      <path class="cls-1" d="M235.9,36.9h2.7l2.5,10.4,2.6-10.4h2.4l-4.4,15.3c-.3,1.1-.6,1.9-.9,2.5-.3.5-.7,1-1.2,1.3-.5.3-1.1.5-1.9.5s-1,0-1.4-.2v-2.5c.4,0,.7,0,1,0,.7,0,1.3-.2,1.6-.5.3-.4.6-1.2,1-2.5l-3.8-13.9ZM229,36.9h2.6v3.3c.7-2.4,1.8-3.6,3.2-3.6s.3,0,.5,0v3c-.2,0-.4,0-.5,0-1.9,0-2.9,1.4-2.9,4.3v7.4h-2.8v-14.4ZM223.3,44.1c0-2-.2-3.4-.6-4.1-.4-.7-1-1.1-1.7-1.1-1.5,0-2.3,1.7-2.3,5.2s.2,3.1.5,3.9.9,1.3,1.7,1.3,1.4-.4,1.7-1.3c.4-.9.5-2.2.5-3.9ZM226.3,44c0,5.1-1.8,7.6-5.3,7.6-1.6,0-2.9-.6-3.8-1.8-.9-1.2-1.4-3.1-1.4-5.6,0-5,1.8-7.5,5.3-7.5s2.9.6,3.8,1.8c.9,1.2,1.4,3.1,1.4,5.5ZM209.2,33.3l2.6-.3v3.9h2.6v2.4h-2.6v6.3c0,1.1,0,1.8,0,2.2,0,.4.2.7.5.9.3.2.7.3,1.3.3s.7,0,1.1,0v2.4c-.8.2-1.5.3-2.1.3-1.1,0-1.9-.2-2.4-.6-.6-.4-.9-1-1.1-1.7s-.2-1.9-.2-3.4v-6.5h-1.7v-2.4h1.8v-3.7ZM206.1,40.3l-2.1.6c-.4-1.3-1.2-2-2.3-2s-.9.2-1.2.5c-.3.3-.5.7-.5,1.2s.2.9.5,1.2c.3.3,1,.6,2.2,1,1.4.5,2.4,1.1,3,1.7s.9,1.5.9,2.6-.4,2.3-1.3,3.2c-.9.9-2.1,1.3-3.6,1.3-2.9,0-4.5-1.4-4.9-4.2l2.4-.5c.3,1.6,1.1,2.4,2.5,2.4s1.2-.2,1.6-.5c.3-.4.5-.8.5-1.3s-.1-.7-.4-1c-.2-.3-.9-.7-2-1.1-1-.4-1.8-.7-2.4-1-.5-.3-1-.8-1.3-1.4-.3-.6-.5-1.3-.5-2,0-1.2.4-2.3,1.3-3.1.8-.9,1.9-1.3,3.3-1.3,2.3,0,3.7,1.2,4.4,3.6ZM191.7,36.9h2.8v14.4h-2.8v-14.4ZM194.5,35h-2.8v-3.2h2.8v3.2ZM176.9,32h3v8h5.5v-8h3v19.4h-3v-8.8h-5.5v8.8h-3v-19.4ZM167.8,36.9h2.4v2.4h-2.4v12h-2.8v-12h-1.7v-2.4h1.7c0-1.7.2-2.9.4-3.5.3-.6.7-1.2,1.2-1.5.6-.4,1.4-.6,2.3-.6s1.1,0,1.7.2v2.3c-.4,0-.7,0-1.1,0-.5,0-1,.1-1.2.3-.3.2-.4.5-.5.8,0,.3,0,1,0,2ZM159.1,44.1c0-2-.2-3.4-.6-4.1-.4-.7-1-1.1-1.7-1.1-1.5,0-2.3,1.7-2.3,5.2s.2,3.1.5,3.9c.4.9.9,1.3,1.7,1.3s1.4-.4,1.7-1.3.5-2.2.5-3.9ZM162.1,44c0,5.1-1.8,7.6-5.3,7.6-1.6,0-2.9-.6-3.8-1.8-.9-1.2-1.4-3.1-1.4-5.6,0-5,1.8-7.5,5.3-7.5s2.9.6,3.8,1.8c.9,1.2,1.4,3.1,1.4,5.5ZM128.2,36.9h2.6v2.2c.7-1.7,1.8-2.5,3.3-2.5s2.7.9,3.1,2.7c.6-1.8,1.8-2.7,3.4-2.7s1.5.2,2.1.6c.5.4.9.9,1.1,1.5.2.6.3,1.8.3,3.5v9.1h-2.8v-8.8c0-1.3-.1-2.3-.3-2.7-.2-.5-.6-.7-1.3-.7-1.4,0-2.1,1.3-2.1,3.9v8.4h-2.8v-8.7c0-1.2,0-2-.1-2.4,0-.4-.3-.6-.5-.9-.2-.2-.6-.3-1-.3-.8,0-1.3.3-1.6.9-.3.6-.5,1.6-.5,3v8.3h-2.8v-14.4ZM115.6,36.9h2.8v9.1c0,1.3,0,2.1.3,2.5.2.4.6.6,1.2.6s1.3-.4,1.6-1.1.5-2.2.5-4.2v-6.9h2.8v14.4h-2.6v-2.2c-.7,1.7-1.8,2.5-3.4,2.5-.8,0-1.4-.2-1.9-.5s-.9-.9-1.1-1.5c-.2-.7-.3-1.8-.3-3.4v-9.2ZM110.4,42.4c0-2.3-.7-3.5-2.2-3.5s-2.2,1.2-2.3,3.5h4.5ZM113.2,44.5h-7.5c0,1.9.2,3.2.7,3.9.5.6,1.1,1,1.8,1,1.2,0,1.9-.9,2.3-2.7l2.6.4c-.7,3.1-2.3,4.6-4.9,4.6-1.6,0-2.9-.6-3.9-1.9-1-1.2-1.4-3-1.4-5.4s.5-4.3,1.5-5.7c1-1.3,2.3-2,3.9-2s2.1.3,2.9,1c.8.7,1.3,1.5,1.6,2.6.3,1.1.5,2.5.5,4.2ZM101,40.3l-2.1.6c-.4-1.3-1.2-2-2.3-2s-.9.2-1.2.5c-.3.3-.5.7-.5,1.2s.2.9.5,1.2c.3.3,1,.6,2.2,1,1.4.5,2.4,1.1,3,1.7.6.6.9,1.5.9,2.6s-.4,2.3-1.3,3.2c-.9.9-2.1,1.3-3.6,1.3-2.9,0-4.5-1.4-4.9-4.2l2.4-.5c.3,1.6,1.1,2.4,2.5,2.4s1.2-.2,1.6-.5c.3-.4.5-.8.5-1.3s-.1-.7-.4-1c-.2-.3-.9-.7-2-1.1-1-.4-1.8-.7-2.4-1-.5-.3-1-.8-1.3-1.4-.3-.6-.5-1.3-.5-2,0-1.2.4-2.3,1.3-3.1.8-.9,1.9-1.3,3.3-1.3,2.3,0,3.7,1.2,4.4,3.6ZM80.4,36.9h2.8v9.1c0,1.3,0,2.1.3,2.5.2.4.6.6,1.2.6s1.3-.4,1.6-1.1.5-2.2.5-4.2v-6.9h2.8v14.4h-2.6v-2.2c-.7,1.7-1.8,2.5-3.4,2.5-.8,0-1.4-.2-1.9-.5s-.9-.9-1.1-1.5c-.2-.7-.3-1.8-.3-3.4v-9.2ZM60.9,32h4.5l3.6,14,3.7-14h4.3v19.4h-2.8v-16.5l-4.3,16.5h-2.2l-4.2-16.5v16.5h-2.6v-19.4Z"/>
      <path class="cls-1" d="M28.3,43.8l9.8-17.7v21h-11.6l1.8-3.3ZM14.3,26l9.8,17.8,1.8,3.3h-11.6v-21.2ZM14.3,16.9v-2.1h23.8v2l-11.9,21.4-11.9-21.3ZM23.2,0L1.2,11l2.4,3.7h4.5l1.5,2.7v29.7H0v4.3h52.3v-4.3h-9.5v-29.6l1.5-2.8h4.5l2.4-3.7L29.1,0h-5.9Z"/>
    </g>
  </g>
</svg>